<svg xmlns="http://www.w3.org/2000/svg" width="56" height="56" viewBox="0 0 56 56"><defs><filter id="button-search-execute-a" width="150%" height="150%" x="-25%" y="-25%" filterUnits="objectBoundingBox"><feOffset dy="2" in="SourceAlpha" result="shadowOffsetOuter1"/><feGaussianBlur in="shadowOffsetOuter1" result="shadowBlurOuter1" stdDeviation="2"/><feColorMatrix in="shadowBlurOuter1" result="shadowMatrixOuter1" values="0 0 0 0 0 0 0 0 0 0 0 0 0 0 0 0 0 0 0.5 0"/><feMerge><feMergeNode in="shadowMatrixOuter1"/><feMergeNode in="SourceGraphic"/></feMerge></filter></defs><g fill="none" filter="url(#button-search-execute-a)" transform="translate(4 2)"><circle cx="24" cy="24" r="24" fill="#FACE0C"/><path fill="#212126" d="M27 23a1 1 0 0 1-1-1c0-2.206-1.794-4-4-4a1 1 0 1 1 0-2c3.309 0 6 2.691 6 6a1 1 0 0 1-1 1m-5 7c-4.41 0-8-3.59-8-8s3.59-8 8-8 8 3.59 8 8-3.59 8-8 8m13.71 4.29l-4.773-4.773c-.633-.633-.802-1.624-.344-2.393a10.038 10.038 0 0 0 1.312-6.515c-.619-4.546-4.41-8.152-8.979-8.567-6.236-.565-11.449 4.649-10.884 10.885.415 4.569 4.021 8.36 8.567 8.978a10.032 10.032 0 0 0 6.515-1.313c.77-.457 1.76-.288 2.393.345l4.773 4.773c.2.19.45.29.71.29.26 0 .51-.1.71-.29.39-.39.39-1.03 0-1.42"/></g></svg>