<svg xmlns="http://www.w3.org/2000/svg" width="110" height="111" viewBox="0 0 110 111"><defs><filter id="button-close-a" width="109.2%" height="171.7%" x="-4.6%" y="-35.9%" filterUnits="objectBoundingBox"><feOffset dy="2" in="SourceAlpha" result="shadowOffsetOuter1"/><feGaussianBlur in="shadowOffsetOuter1" result="shadowBlurOuter1" stdDeviation="16"/><feColorMatrix in="shadowBlurOuter1" result="shadowMatrixOuter1" values="0 0 0 0 0 0 0 0 0 0 0 0 0 0 0 0 0 0 0.5 0"/><feMerge><feMergeNode in="shadowMatrixOuter1"/><feMergeNode in="SourceGraphic"/></feMerge></filter><filter id="button-close-b" width="150%" height="150%" x="-25%" y="-25%" filterUnits="objectBoundingBox"><feOffset dy="2" in="SourceAlpha" result="shadowOffsetOuter1"/><feGaussianBlur in="shadowOffsetOuter1" result="shadowBlurOuter1" stdDeviation="2"/><feColorMatrix in="shadowBlurOuter1" result="shadowMatrixOuter1" values="0 0 0 0 0 0 0 0 0 0 0 0 0 0 0 0 0 0 0.5 0"/><feMerge><feMergeNode in="shadowMatrixOuter1"/><feMergeNode in="SourceGraphic"/></feMerge></filter></defs><g filter="url(#button-close-a)"><g fill="none" filter="url(#button-close-b)" transform="translate(31 29)"><circle cx="24" cy="24" r="24" fill="#FACE0C"/><path fill="#212126" d="M35.712 34.293c.39.39.39 1.03 0 1.42-.2.19-.45.29-.71.29-.26 0-.51-.1-.71-.29l-8.876-8.876a2 2 0 0 0-2.828 0l-8.876 8.876c-.2.19-.45.29-.71.29-.26 0-.51-.1-.71-.29-.39-.39-.39-1.03 0-1.42l8.876-8.876a2 2 0 0 0 0-2.828l-8.876-8.876c-.39-.39-.39-1.03 0-1.42.39-.39 1.03-.39 1.42 0l8.876 8.875a1.998 1.998 0 0 0 2.828 0l8.876-8.875c.39-.39 1.03-.39 1.42 0 .39.39.39 1.03 0 1.42l-8.876 8.876a2 2 0 0 0 0 2.828l8.876 8.876z"/></g></g></svg>