<svg xmlns="http://www.w3.org/2000/svg" width="56" height="56" viewBox="0 0 56 56">
  <defs>
    <filter id="button-search-execute-a" width="150%" height="150%" x="-25%" y="-25%" filterUnits="objectBoundingBox">
      <feOffset dy="2" in="SourceAlpha" result="shadowOffsetOuter1"/>
      <feGaussianBlur in="shadowOffsetOuter1" result="shadowBlurOuter1" stdDeviation="2"/>
      <feColorMatrix in="shadowBlurOuter1" result="shadowMatrixOuter1" values="0 0 0 0 0   0 0 0 0 0   0 0 0 0 0  0 0 0 0.5 0"/>
      <feMerge>
        <feMergeNode in="shadowMatrixOuter1"/>
        <feMergeNode in="SourceGraphic"/>
      </feMerge>
    </filter>
  </defs>
  <g fill="none" filter="url(#button-search-execute-a)" transform="translate(4 2)">
    <circle cx="24" cy="24" r="24" fill="#FACE0C"/>
    <path fill="#212126" d="M15,11 C14.447,11 14,10.552 14,10 C14,7.794 12.206,6 10,6 C9.447,6 9,5.552 9,5 C9,4.448 9.447,4 10,4 C13.309,4 16,6.691 16,10 C16,10.552 15.553,11 15,11 M10,18 C5.59,18 2,14.41 2,10 C2,5.59 5.59,2 10,2 C14.41,2 18,5.59 18,10 C18,14.41 14.41,18 10,18 M23.71,22.29 L18.937,17.517 C18.304,16.884 18.135,15.893 18.593,15.124 C19.701,13.26 20.23,10.997 19.905,8.609 C19.286,4.063 15.495,0.457 10.926,0.042 C4.69,-0.523 -0.523,4.691 0.042,10.927 C0.457,15.496 4.063,19.287 8.609,19.905 C10.997,20.23 13.26,19.701 15.124,18.592 C15.894,18.135 16.884,18.304 17.517,18.937 L22.29,23.71 C22.49,23.9 22.74,24 23,24 C23.26,24 23.51,23.9 23.71,23.71 C24.1,23.32 24.1,22.68 23.71,22.29" transform="translate(12 12)"/>
  </g>
</svg>
