<svg xmlns="http://www.w3.org/2000/svg" width="110" height="111" viewBox="0 0 110 111">
  <defs>
    <filter id="button-close-a" width="109.2%" height="171.7%" x="-4.6%" y="-35.9%" filterUnits="objectBoundingBox">
      <feOffset dy="2" in="SourceAlpha" result="shadowOffsetOuter1"/>
      <feGaussianBlur in="shadowOffsetOuter1" result="shadowBlurOuter1" stdDeviation="16"/>
      <feColorMatrix in="shadowBlurOuter1" result="shadowMatrixOuter1" values="0 0 0 0 0   0 0 0 0 0   0 0 0 0 0  0 0 0 0.5 0"/>
      <feMerge>
        <feMergeNode in="shadowMatrixOuter1"/>
        <feMergeNode in="SourceGraphic"/>
      </feMerge>
    </filter>
    <filter id="button-close-b" width="150%" height="150%" x="-25%" y="-25%" filterUnits="objectBoundingBox">
      <feOffset dy="2" in="SourceAlpha" result="shadowOffsetOuter1"/>
      <feGaussianBlur in="shadowOffsetOuter1" result="shadowBlurOuter1" stdDeviation="2"/>
      <feColorMatrix in="shadowBlurOuter1" result="shadowMatrixOuter1" values="0 0 0 0 0   0 0 0 0 0   0 0 0 0 0  0 0 0 0.5 0"/>
      <feMerge>
        <feMergeNode in="shadowMatrixOuter1"/>
        <feMergeNode in="SourceGraphic"/>
      </feMerge>
    </filter>
  </defs>
  <g filter="url(#button-close-a)">
    <g fill="none" fill-rule="evenodd" filter="url(#button-close-b)" transform="translate(31 29)">
      <circle cx="24" cy="24" r="24" fill="#FACE0C" fill-rule="nonzero"/>
      <path fill="#212126" fill-rule="nonzero" d="M23.7124,22.2925 C24.1024,22.6825 24.1024,23.3225 23.7124,23.7125 C23.5124,23.9025 23.2624,24.0025 23.0024,24.0025 C22.7424,24.0025 22.4924,23.9025 22.2924,23.7125 L13.4164,14.8365 C12.6354,14.0555 11.3694,14.0555 10.5884,14.8365 L1.7124,23.7125 C1.5124,23.9025 1.2624,24.0025 1.0024,24.0025 C0.7424,24.0025 0.4924,23.9025 0.2924,23.7125 C-0.0976,23.3225 -0.0976,22.6825 0.2924,22.2925 L9.1684,13.4165 C9.9494,12.6355 9.9494,11.3695 9.1684,10.5885 L0.2924,1.7125 C-0.0976,1.3225 -0.0976,0.6825 0.2924,0.2925 C0.6824,-0.0975 1.3224,-0.0975 1.7124,0.2925 L10.5884,9.1675 C11.3694,9.9495 12.6354,9.9495 13.4164,9.1675 L22.2924,0.2925 C22.6824,-0.0975 23.3224,-0.0975 23.7124,0.2925 C24.1024,0.6825 24.1024,1.3225 23.7124,1.7125 L14.8364,10.5885 C14.0554,11.3695 14.0554,12.6355 14.8364,13.4165 L23.7124,22.2925 Z" transform="translate(12 12)"/>
    </g>
  </g>
</svg>
