<svg xmlns="http://www.w3.org/2000/svg" width="24" height="24" viewBox="0 0 24 24"><path fill="#212126" d="M4.999 6.958a1 1 0 0 1-1 1H3.5a.5.5 0 0 1-.5-.5V2.5a.5.5 0 0 1 .5-.5H4a1 1 0 0 1 1 1v.042c0 .529.429.958.958.958H16c.978 0 1.847.47 2.395 1.196a.504.504 0 0 1-.403.804H5.957a.958.958 0 0 0-.958.958M11 22a1 1 0 0 1-1-1V9a1 1 0 1 1 2 0v12a1 1 0 0 1-1 1m5-20H6.958A.959.959 0 0 1 6 1.043V.958A.958.958 0 0 0 5.042 0H3a2 2 0 0 0-2 2v5.96a2 2 0 0 0 2 2h2.042A.958.958 0 0 0 6 9v-.042c0-.53.429-.958.958-.958H7a1 1 0 0 1 1 1v14a1 1 0 0 0 1 1h4a1 1 0 0 0 1-1V9a1 1 0 0 1 1-1h3a1 1 0 0 1 1 1v.965c0 .534.402.998.935 1.033A1 1 0 0 0 21 10V7a5 5 0 0 0-5-5"/></svg>