<svg xmlns="http://www.w3.org/2000/svg" width="54" height="50" viewBox="0 0 54 50"><defs><filter id="icon-hamburger-a" width="121.9%" height="197.2%" x="-10.9%" y="-48.6%" filterUnits="objectBoundingBox"><feOffset dy="2" in="SourceAlpha" result="shadowOffsetOuter1"/><feGaussianBlur in="shadowOffsetOuter1" result="shadowBlurOuter1" stdDeviation="8"/><feColorMatrix in="shadowBlurOuter1" result="shadowMatrixOuter1" values="0 0 0 0 0 0 0 0 0 0 0 0 0 0 0 0 0 0 0.5 0"/><feMerge><feMergeNode in="shadowMatrixOuter1"/><feMergeNode in="SourceGraphic"/></feMerge></filter></defs><path fill="#FACE0C" d="M24 20a1 1 0 0 0-1-1H1a1 1 0 1 0 0 2h22a1 1 0 0 0 1-1m0-8a1 1 0 0 0-1-1H1a1 1 0 1 0 0 2h22a1 1 0 0 0 1-1m-1-7H1a1 1 0 1 1 0-2h22a1 1 0 1 1 0 2" filter="url(#icon-hamburger-a)" transform="translate(15 11)"/></svg>