<svg xmlns="http://www.w3.org/2000/svg" width="24" height="24" viewBox="0 0 24 24"><path d="M24 23V13a1 1 0 0 0-1-1h-3a1 1 0 1 0 0 2 2 2 0 0 1 2 2v4a2 2 0 0 1-2 2H4a2 2 0 0 1-2-2v-4a2 2 0 0 1 2-2 1 1 0 1 0 0-2H1a1 1 0 0 0-1 1v10a1 1 0 0 0 1 1h22a1 1 0 0 0 1-1m-12.927-6.605l-1.004-2.503a23.102 23.102 0 0 0-5.108-7.74L3.515 4.706a1.003 1.003 0 0 1 0-1.414 1.003 1.003 0 0 1 1.414 0l1.464 1.463a25.132 25.132 0 0 1 2.785 3.309c.564.804 1.818.421 1.818-.562V1.004c.007-.275.113-.523.297-.707.184-.184.432-.29.707-.297.552 0 1.004.453 1.004 1.004v6.498c0 .983 1.254 1.366 1.818.562a25.132 25.132 0 0 1 2.785-3.309l1.464-1.463a1.003 1.003 0 0 1 1.414 0 1.003 1.003 0 0 1 0 1.414l-1.464 1.463a23.017 23.017 0 0 0-5.082 7.7l-1.012 2.526a1 1 0 0 1-.927.628c-.41 0-.777-.253-.927-.628"/></svg>