<svg xmlns="http://www.w3.org/2000/svg" width="24" height="24" viewBox="0 0 24 24"><path fill="#212126" d="M12 22c4.751 0 8.738-3.331 9.751-7.78a1 1 0 0 0-.977-1.22h-.775a1 1 0 0 1-.998-1.067c.035-.531.5-.933 1.032-.933h.741a1 1 0 0 0 .977-1.22C20.738 5.331 16.751 2 12 2 7.249 2 3.262 5.331 2.249 9.78A1 1 0 0 0 3.226 11h.773a1 1 0 0 1 .998 1.067c-.035.531-.5.933-1.032.933h-.739a1 1 0 0 0-.977 1.22C3.262 18.669 7.249 22 12 22zm0-22c6.617 0 12 5.383 12 12s-5.383 12-12 12S0 18.617 0 12 5.383 0 12 0zm.089 10.459c1.667.148 4.184.372 4.184 3.468 0 .89-.318 2.794-2.873 3.303a.498.498 0 0 0-.4.49V18a1 1 0 0 1-1.065.998c-.533-.035-.935-.498-.935-1.033v-.245a.498.498 0 0 0-.4-.49c-2.555-.51-2.872-2.412-2.872-3.303a1 1 0 1 1 2 0c0 .466 0 1.437 2.272 1.437 2.273 0 2.273-1.008 2.273-1.438 0-1.1-.31-1.293-2.36-1.476-1.451-.128-3.64-.323-3.64-3.04 0-.7.26-2.176 2.33-2.633A.502.502 0 0 0 11 6.29V6a1 1 0 0 1 1.066-.998c.532.035.934.498.934 1.033v.242c0 .242.17.447.406.492.767.143 1.443.399 1.88.73a1 1 0 1 1-1.204 1.596c-.245-.184-1.076-.459-2.082-.459-1.727 0-1.727.542-1.727.774 0 .698 0 .886 1.816 1.049z"/></svg>