<svg xmlns="http://www.w3.org/2000/svg" width="16" height="16" viewBox="0 0 16 16"><path fill="#212126" d="M3.698 2.768a.5.5 0 0 0-.707 0l-.605.604c-.347.349-.56 1.423-.209 2.959.396 1.717 1.381 3.46 2.706 4.786 1.324 1.324 3.07 2.31 4.786 2.704 1.537.354 2.61.139 2.958-.208l.604-.605a.5.5 0 0 0 0-.707l-.332-.331a2 2 0 0 0-1.763-.556l-1.29.229a1.001 1.001 0 0 1-.88-.278l-4.33-4.33a1 1 0 0 1-.279-.881l.23-1.292A1.999 1.999 0 0 0 4.03 3.1l-.332-.333zm7.424 13.23a8.522 8.522 0 0 1-1.902-.228c-2.103-.483-4.146-1.633-5.75-3.24C1.862 10.926.712 8.883.23 6.78-.249 4.703.03 2.9.971 1.958L2.637.293a1.003 1.003 0 0 1 1.415 0L6.55 2.79c.23.23.334.56.277.882L6.552 5.22a1.5 1.5 0 0 0 .417 1.32l2.49 2.49c.345.346.84.502 1.321.416l1.548-.273c.321-.057.65.047.881.277l2.496 2.497a1 1 0 0 1 0 1.414l-1.664 1.666c-.639.639-1.673.972-2.919.972z"/></svg>