<svg xmlns="http://www.w3.org/2000/svg" width="16" height="16" viewBox="0 0 16 16"><path fill="#212126" d="M2 13v-3a1 1 0 0 1 1-1h10a1 1 0 0 1 1 1v3a1 1 0 0 1-1 1H3a1 1 0 0 1-1-1m2-8.034c0 .503.357.954.855 1.024A1 1 0 0 0 6 5v-.034C6 4.433 6.433 4 6.966 4h2.068c.533 0 .966.433.966.966 0 .533.402.998.935 1.032A1 1 0 0 0 12 5v-.034c0-.533.433-.966.966-.966H13a1 1 0 0 1 1 1v.5A1.5 1.5 0 0 1 12.5 7H3a1 1 0 0 1-1-1V5a1 1 0 0 1 1-1h.034c.533 0 .966.433.966.966M15 2h-2.034A.967.967 0 0 1 12 1.034c0-.533-.402-.998-.935-1.032A1 1 0 0 0 10 1v.034A.967.967 0 0 1 9.034 2H6.966A.967.967 0 0 1 6 1.034C6 .501 5.598.036 5.065.002A1 1 0 0 0 4 1v.034A.967.967 0 0 1 3.034 2H1a1 1 0 0 0-1 1v12a1 1 0 0 0 1 1h14a1 1 0 0 0 1-1V3a1 1 0 0 0-1-1"/></svg>