<svg xmlns="http://www.w3.org/2000/svg" width="24" height="24" viewBox="0 0 24 24"><path fill="#212126" d="M23.71.291a1 1 0 0 0-1.1-.21l-2.502 1.07A22.976 22.976 0 0 1 11.07 3H9c-.55 0-1 .45-1 1s.45 1 1 1h2.07c1.454 0 2.894-.124 4.309-.37.968-.17 1.583.988.889 1.682L7.29 15.291c-.39.39-.39 1.03 0 1.42.2.19.45.29.71.29.26 0 .51-.1.71-.29l8.978-8.978c.694-.694 1.852-.079 1.683.89A25.035 25.035 0 0 0 19 12.93V15c0 .55.45 1 1 1s1-.45 1-1v-2.046c0-3.122.633-6.213 1.86-9.084l1.06-2.48a1 1 0 0 0-.21-1.1M16 18.001v5c0 .55-.45 1-1 1H1c-.55 0-1-.45-1-1v-14c0-.55.45-1 1-1h5c.55 0 1 .45 1 1s-.45 1-1 1H4a2 2 0 0 0-2 2v8a2 2 0 0 0 2 2h8a2 2 0 0 0 2-2v-2c0-.55.45-1 1-1s1 .45 1 1"/></svg>