<svg xmlns="http://www.w3.org/2000/svg" width="24" height="24" viewBox="0 0 24 24"><path fill="#212126" d="M23.37 12.703l-2.502 1.004a23.125 23.125 0 0 0-7.74 5.11l-1.445 1.445a1.004 1.004 0 0 1-1.415 0 1.003 1.003 0 0 1 0-1.414l1.464-1.464A25.132 25.132 0 0 1 15.04 14.6c.804-.564.42-1.818-.562-1.818H1.004a1.025 1.025 0 0 1-.707-.297A1.027 1.027 0 0 1 0 11.777c0-.552.453-1.004 1.004-1.004h13.475c.983 0 1.366-1.254.562-1.819a24.978 24.978 0 0 1-3.31-2.785l-1.463-1.464a1.003 1.003 0 0 1 0-1.414 1.006 1.006 0 0 1 1.415 0l1.463 1.464a23 23 0 0 0 7.7 5.083l2.525 1.012c.375.15.629.517.629.927 0 .41-.254.778-.63.926"/></svg>