<svg xmlns="http://www.w3.org/2000/svg" width="16" height="16" viewBox="0 0 16 16"><path fill="#212126" d="M7.293 11.293a.999.999 0 1 1 1.414 1.414l-2.414 2.414A2.978 2.978 0 0 1 4.172 16 4.176 4.176 0 0 1 0 11.829c0-.802.313-1.556.879-2.122l2.414-2.414a.999.999 0 1 1 1.414 1.414l-2.414 2.414a1 1 0 0 0-.293.708C2 13.026 2.975 14 4.172 14c.263 0 .52-.107.707-.293l2.414-2.414zM11.828 0A4.176 4.176 0 0 1 16 4.171c0 .802-.313 1.556-.879 2.122l-2.414 2.414a.997.997 0 0 1-1.414 0 .999.999 0 0 1 0-1.414l2.414-2.414A1 1 0 0 0 14 4.171 2.174 2.174 0 0 0 11.828 2c-.263 0-.52.107-.707.293L8.707 4.707a.999.999 0 1 1-1.414-1.414L9.707.879A2.978 2.978 0 0 1 11.828 0zM4.293 11.707a.999.999 0 0 1 0-1.414l6-6a.999.999 0 1 1 1.414 1.414l-6 6a.997.997 0 0 1-1.414 0z"/></svg>