<svg xmlns="http://www.w3.org/2000/svg" width="24" height="24" viewBox="0 0 24 24"><path d="M23.712 22.293c.39.39.39 1.03 0 1.42-.2.19-.45.29-.71.29-.26 0-.51-.1-.71-.29l-8.876-8.877a2 2 0 0 0-2.828 0l-8.876 8.876c-.2.19-.45.29-.71.29-.26 0-.51-.1-.71-.29-.39-.39-.39-1.03 0-1.42l8.876-8.876a2 2 0 0 0 0-2.828L.292 1.713c-.39-.39-.39-1.03 0-1.42.39-.39 1.03-.39 1.42 0l8.876 8.874a1.998 1.998 0 0 0 2.828 0L22.292.293c.39-.39 1.03-.39 1.42 0 .39.39.39 1.03 0 1.42l-8.876 8.875a2 2 0 0 0 0 2.829l8.876 8.876z"/></svg>