<svg xmlns="http://www.w3.org/2000/svg" width="16" height="16" viewBox="0 0 16 16"><path d="M14 11V7a1 1 0 0 0-1-1H7a1 1 0 0 0-1 1v4a1 1 0 0 0 1 1h6a1 1 0 0 0 1-1zM8 3a1 1 0 0 0 1 1h2a1 1 0 1 0 0-2H9a1 1 0 0 0-1 1zm7 1a1 1 0 0 1 1 1v8a1 1 0 0 1-1 1H5a1 1 0 0 1-1-1V5a1 1 0 0 1 1-1 1 1 0 0 0 1-1V1a1 1 0 0 1 1-1h6a1 1 0 0 1 1 1v2a1 1 0 0 0 1 1zM2 6.236v5.528a2 2 0 0 0 1.105 1.789l.619.309a.5.5 0 0 1 .276.447v1.19a.5.5 0 0 1-.5.5H2.207a.5.5 0 0 1-.353-.145A6.33 6.33 0 0 1 0 11.379V6.62c0-1.678.667-3.287 1.854-4.474A.496.496 0 0 1 2.207 2H3.5a.5.5 0 0 1 .5.5v1.19a.5.5 0 0 1-.276.448l-.619.309A2.002 2.002 0 0 0 2 6.236z"/></svg>