<svg xmlns="http://www.w3.org/2000/svg" width="24" height="24" viewBox="0 0 24 24"><path d="M18 17.517V16.38a.42.42 0 0 1 .389-.418c1.136-.088 2.163-.343 3.018-.727a.42.42 0 0 1 .593.383v.38c0 .715-1.354 1.7-3.532 1.936a.421.421 0 0 1-.468-.418zM2 16v-.381a.42.42 0 0 1 .594-.382 8.537 8.537 0 0 0 2.056.608c.203.034.35.209.35.414v1.084a.42.42 0 0 1-.521.409C2.929 17.366 2 16.59 2 16zM6.5 6C9.247 6 11 7.185 11 8c0 .816-1.753 2-4.5 2S2 8.816 2 8c0-.815 1.753-2 4.5-2zm11-4C20.247 2 22 3.185 22 4c0 .816-1.753 2-4.5 2S13 4.816 13 4c0-.815 1.753-2 4.5-2zM22 8c0 .816-1.753 2-4.5 2S13 8.816 13 8v-.38a.42.42 0 0 1 .59-.385c1.073.484 2.416.765 3.91.765 1.494 0 2.837-.281 3.91-.765a.42.42 0 0 1 .59.385V8zM11.5 18C8.753 18 7 16.816 7 16c0-.815 1.753-2 4.5-2s4.5 1.185 4.5 2c0 .816-1.753 2-4.5 2zM2 11.62a.42.42 0 0 1 .59-.385c1.073.484 2.416.765 3.91.765 1.494 0 2.837-.281 3.91-.765a.42.42 0 1 1 .2.803c-1.991.154-3.644.82-4.628 1.795a.412.412 0 0 1-.326.117C3.405 13.738 2 12.727 2 12v-.38zM11.5 22C8.753 22 7 20.816 7 20v-.38a.42.42 0 0 1 .59-.385c1.073.484 2.416.765 3.91.765 1.494 0 2.837-.281 3.91-.765a.42.42 0 0 1 .59.385V20c0 .816-1.753 2-4.5 2zM22 12c0 .816-1.753 2-4.5 2-.059 0-.115-.002-.171-.004a.415.415 0 0 1-.273-.126c-.819-.832-2.12-1.444-3.705-1.714a.42.42 0 0 1-.351-.414v-.122a.42.42 0 0 1 .59-.385c1.073.484 2.416.765 3.91.765 1.494 0 2.837-.281 3.91-.765a.42.42 0 0 1 .59.385V12zM17.5 0C13.794 0 11 1.72 11 4v.38a.42.42 0 0 1-.59.386C9.337 4.282 7.994 4 6.5 4 2.794 4 0 5.72 0 8v8c0 1.96 2.066 3.503 5 3.898V20c0 2.28 2.794 4 6.5 4s6.5-1.72 6.5-4v-.014c3.453-.148 6-1.81 6-3.986V4c0-2.28-2.794-4-6.5-4z"/></svg>