<svg xmlns="http://www.w3.org/2000/svg" width="24" height="24" viewBox="0 0 24 24"><path fill="#212126" d="M15 11a1 1 0 0 1-1-1c0-2.206-1.794-4-4-4a1 1 0 1 1 0-2c3.309 0 6 2.691 6 6a1 1 0 0 1-1 1m-5 7c-4.41 0-8-3.59-8-8s3.59-8 8-8 8 3.59 8 8-3.59 8-8 8m13.71 4.29l-4.773-4.773c-.633-.633-.802-1.624-.344-2.393a10.038 10.038 0 0 0 1.312-6.515c-.619-4.546-4.41-8.152-8.979-8.567C4.69-.523-.523 4.691.042 10.927c.415 4.569 4.021 8.36 8.567 8.978a10.032 10.032 0 0 0 6.515-1.313c.77-.457 1.76-.288 2.393.345l4.773 4.773c.2.19.45.29.71.29.26 0 .51-.1.71-.29.39-.39.39-1.03 0-1.42"/></svg>