<svg xmlns="http://www.w3.org/2000/svg" width="24" height="24" viewBox="0 0 24 24"><path fill="#212126" d="M24 23V1a1 1 0 0 0-2 0v22a1 1 0 1 0 2 0m-6.629-10.074l-2.503 1.005a23.098 23.098 0 0 0-7.739 5.108l-1.447 1.446a1.003 1.003 0 0 1-1.414 0 1.003 1.003 0 0 1 0-1.414l1.463-1.464a25.14 25.14 0 0 1 3.31-2.785c.804-.564.42-1.818-.562-1.818H1.004a1.025 1.025 0 0 1-.707-.297A1.023 1.023 0 0 1 0 12c0-.552.453-1.004 1.004-1.004h7.475c.982 0 1.366-1.254.562-1.819a25.056 25.056 0 0 1-3.31-2.784L4.268 4.929a1.003 1.003 0 0 1 0-1.414 1.003 1.003 0 0 1 1.414 0l1.464 1.464a23.012 23.012 0 0 0 7.7 5.082l2.525 1.013A.999.999 0 0 1 18 12c0 .41-.254.778-.629.926"/></svg>