<svg xmlns="http://www.w3.org/2000/svg" width="24" height="24" viewBox="0 0 24 24"><path d="M10.712.378a2.385 2.385 0 0 0 2.576 0 2.386 2.386 0 0 1 3.408.913 2.388 2.388 0 0 0 2.23 1.288 2.386 2.386 0 0 1 2.495 2.495 2.388 2.388 0 0 0 1.287 2.23 2.386 2.386 0 0 1 .914 3.408 2.386 2.386 0 0 0 0 2.576 2.386 2.386 0 0 1-.914 3.408 2.388 2.388 0 0 0-1.287 2.23 2.386 2.386 0 0 1-2.495 2.495 2.386 2.386 0 0 0-2.23 1.287 2.386 2.386 0 0 1-3.408.914 2.385 2.385 0 0 0-2.576 0 2.386 2.386 0 0 1-3.408-.914 2.387 2.387 0 0 0-2.231-1.287 2.386 2.386 0 0 1-2.494-2.495 2.386 2.386 0 0 0-1.288-2.23 2.386 2.386 0 0 1-.913-3.408 2.386 2.386 0 0 0 0-2.576 2.386 2.386 0 0 1 .913-3.408 2.386 2.386 0 0 0 1.288-2.23 2.386 2.386 0 0 1 2.494-2.495 2.389 2.389 0 0 0 2.231-1.288 2.386 2.386 0 0 1 3.408-.913"/></svg>