<svg xmlns="http://www.w3.org/2000/svg" width="88" height="88" viewBox="0 0 88 88"><defs><filter id="logo-a" width="104.9%" height="139.8%" x="-2.4%" y="-19.9%" filterUnits="objectBoundingBox"><feOffset dy="2" in="SourceAlpha" result="shadowOffsetOuter1"/><feGaussianBlur in="shadowOffsetOuter1" result="shadowBlurOuter1" stdDeviation="8"/><feColorMatrix in="shadowBlurOuter1" result="shadowMatrixOuter1" values="0 0 0 0 0 0 0 0 0 0 0 0 0 0 0 0 0 0 0.5 0"/><feMerge><feMergeNode in="shadowMatrixOuter1"/><feMergeNode in="SourceGraphic"/></feMerge></filter></defs><path fill="#FACE0C" d="M85.82 74.134l10.11-4.187a1.31 1.31 0 0 1 1.438.293l.65.665a1.31 1.31 0 0 1-.007 1.846l-7.856 7.856a1.751 1.751 0 0 1-2.6-.14 26.218 26.218 0 0 1-2.6-3.874 1.75 1.75 0 0 1 .865-2.459zm44.359-20.268l-9.426 3.904a1.335 1.335 0 0 1-1.846-1.233v-1.654c0-.354.142-.694.392-.945l6.544-6.545a1.752 1.752 0 0 1 2.6.14 26.178 26.178 0 0 1 2.601 3.875c.5.913.097 2.06-.865 2.458zm-11.272 7.947v-.507c0-.531.32-1.009.81-1.212l11.131-4.61a1.75 1.75 0 0 1 2.35 1.126c.434 1.486.736 3.017.902 4.579a1.752 1.752 0 0 1-1.74 1.936h-12.14a1.312 1.312 0 0 1-1.313-1.313zm0 4.881v-.507c0-.724.588-1.312 1.312-1.312h12.141c1.04 0 1.85.903 1.74 1.937a26.254 26.254 0 0 1-.902 4.58 1.75 1.75 0 0 1-2.35 1.125l-11.13-4.61a1.313 1.313 0 0 1-.811-1.213zm.07 7.046l-1.37-3.307a.815.815 0 0 1 1.064-1.065l11.508 4.766a1.751 1.751 0 0 1 .865 2.459 26.224 26.224 0 0 1-2.6 3.874 1.751 1.751 0 0 1-2.601.14l-6.866-6.867zm-2.753 7.483v-2.808c0-.363.113-.717.322-1.013l.901-1.271a.875.875 0 0 1 1.333-.113l5.826 5.826a1.75 1.75 0 0 1-.14 2.6 26.14 26.14 0 0 1-3.875 2.6 1.75 1.75 0 0 1-2.458-.864l-1.776-4.288a1.753 1.753 0 0 1-.133-.67zm-7.054 3.988l.594-.89a.876.876 0 0 1 1.062-.323l1.053.437a1.75 1.75 0 0 0 1.78-.264l.393-.323a.874.874 0 0 1 1.363.342l1.101 2.659a1.75 1.75 0 0 1-1.126 2.35 26.097 26.097 0 0 1-4.578.901 1.75 1.75 0 0 1-1.937-1.74v-2.177c0-.346.102-.684.295-.972zm-5.372-6.668a.58.58 0 0 1 .168.356l.166 1.677v2.371a1.75 1.75 0 0 0 1.156 1.647l.68.244c.693.25 1.157.908 1.157 1.647v1.875c0 1.04-.903 1.85-1.937 1.74a26.091 26.091 0 0 1-4.58-.9 1.751 1.751 0 0 1-1.126-2.351l3.362-8.117a.585.585 0 0 1 .954-.189zm-2.445-6.147c.104.103.135.26.08.394l-.545 1.314a1.75 1.75 0 0 0 .379 1.908c.347.347.45.868.262 1.321l-3.663 8.847a1.75 1.75 0 0 1-2.459.865 26.232 26.232 0 0 1-3.875-2.6 1.752 1.752 0 0 1-.139-2.601l9.449-9.448a.362.362 0 0 1 .511 0zm-6.084-7.008l1.155 1.156a.87.87 0 0 1-.283 1.42l-10.99 4.553a1.75 1.75 0 0 1-2.35-1.126 26.091 26.091 0 0 1-.901-4.579 1.751 1.751 0 0 1 1.74-1.937h10.391c.464 0 .91.185 1.238.513zm-.513-4.783l-.29 1.463a1.313 1.313 0 0 1-1.288 1.057H83.64a1.75 1.75 0 0 1-1.74-1.936c.164-1.562.467-3.093.9-4.58a1.75 1.75 0 0 1 2.35-1.125l8.82 3.653c.58.24.909.854.786 1.468zm1.246-6.268l-.015.071A1.75 1.75 0 0 0 96.483 56l.663.647a.303.303 0 0 1-.096.497l-.989.41c-.427.177-.91.177-1.338 0l-8.903-3.688a1.75 1.75 0 0 1-.865-2.458 26.173 26.173 0 0 1 2.6-3.875 1.752 1.752 0 0 1 2.6-.14l5.367 5.368a1.75 1.75 0 0 1 .48 1.576zm5.373-3.455a.767.767 0 0 1-.708.474h-2.624a3.5 3.5 0 0 1-2.475-1.025l-4.175-4.175a1.75 1.75 0 0 1 .139-2.6 26.164 26.164 0 0 1 3.875-2.6 1.75 1.75 0 0 1 2.459.865l3.51 8.474a.767.767 0 0 1 0 .587zm4.438-6.132h-3.671a1.75 1.75 0 0 1-1.616-1.08l-1.044-2.518a1.75 1.75 0 0 1 1.127-2.35 26.173 26.173 0 0 1 4.579-.902c1.034-.11 1.937.7 1.937 1.74v3.797c0 .726-.588 1.313-1.313 1.313zm8.336 0h-3.962a1.312 1.312 0 0 1-1.312-1.313v-3.796c0-1.04.902-1.85 1.937-1.741a26.18 26.18 0 0 1 4.578.902 1.75 1.75 0 0 1 1.126 2.35l-1.155 2.788c-.203.49-.681.81-1.212.81zm3.601 5.827a7.016 7.016 0 0 1-.828-3.295l-.001-1.834c0-.46.09-.917.266-1.343l.946-2.284a1.75 1.75 0 0 1 2.458-.865 26.073 26.073 0 0 1 3.876 2.6 1.75 1.75 0 0 1 .139 2.6l-4.735 4.735a1.335 1.335 0 0 1-2.12-.314zM99.647 70.065l-.968-.986a.878.878 0 0 1-.25-.614v-1.667c0-.463-.184-.909-.513-1.237l-1.638-1.639a.876.876 0 0 1-.24-.79l.704-3.545a.873.873 0 0 1 .524-.638l1.036-.43a.873.873 0 0 0 .523-.637l.248-1.245a.88.88 0 0 0-.248-.797l-.644-.629a1.226 1.226 0 0 1 .856-2.105h2.142a1.75 1.75 0 0 0 1.617-1.08l.413-.999a1.75 1.75 0 0 0-.002-1.346l-.316-.755a1.75 1.75 0 0 1 1.614-2.426h8.92c.966 0 1.75.783 1.75 1.75 0 .801.197 1.59.576 2.298l.578 1.082a7 7 0 0 1 .828 3.302v11.31a3.5 3.5 0 0 1-.59 1.945l-.582.87a1.75 1.75 0 0 0-.162 1.643l.859 2.07a1.753 1.753 0 0 1-.19 1.682l-1.374 1.939a3.506 3.506 0 0 0-.644 2.024v2.409c0 .261-.117.51-.32.676l-1.2.985a.875.875 0 0 1-.89.132l-1.23-.51a1.75 1.75 0 0 0-2.126.644l-.273.41a.875.875 0 0 1-1.024.337l-.951-.343a.874.874 0 0 1-.578-.823V80.49l-.133-1.347a3.5 3.5 0 0 0-1.008-2.133l-1.823-1.822a.875.875 0 0 1-.19-.954l.637-1.537a.875.875 0 0 0-.19-.954l-1.388-1.388a.876.876 0 0 0-.953-.19l-.228.095a.875.875 0 0 1-.959-.195zM127.8 44.2c-5.29-5.287-12.321-8.2-19.8-8.2-7.48 0-14.511 2.913-19.8 8.201C82.913 49.49 80 56.521 80 64c0 7.48 2.912 14.51 8.2 19.8 5.29 5.287 12.32 8.2 19.8 8.2 7.479 0 14.51-2.912 19.799-8.2C133.087 78.51 136 71.48 136 64c0-7.479-2.913-14.51-8.201-19.799z" filter="url(#logo-a)" transform="translate(-64 -22)"/></svg>