<svg xmlns="http://www.w3.org/2000/svg" width="195" height="20" viewBox="0 0 195 20"><path fill="#FDFDFD" fill-rule="evenodd" d="M3.6 18.486a.516.516 0 0 1-.515.514H.515A.516.516 0 0 1 0 18.486V1.517c0-.283.231-.514.514-.514h2.571c.283 0 .514.231.514.514v16.969zm5.902 0a.516.516 0 0 1-.514.514H6.674a.516.516 0 0 1-.514-.514V1.26c0-.283.231-.514.514-.514h2.314c.283 0 .514.231.514.514v17.226zm5.852 0a.516.516 0 0 1-.515.514h-2.313a.516.516 0 0 1-.515-.514V1.26c0-.283.232-.514.515-.514h2.313c.283 0 .515.231.515.514v17.226zm5.854.103c0 .205-.18.411-.412.411h-2.52a.423.423 0 0 1-.41-.411V6.556c0-.206.18-.411.41-.411h2.52c.232 0 .412.205.412.411V18.59zm.128-14.655c0 .231-.18.411-.411.411h-2.777a.406.406 0 0 1-.411-.411V1.157c0-.206.18-.411.411-.411h2.777c.231 0 .411.205.411.411v2.777zm12.865 14.552a.516.516 0 0 1-.514.514h-2.314a.516.516 0 0 1-.514-.514v-7.868c0-.848-.694-1.517-1.928-1.517-1.209 0-1.928.643-1.928 1.415v7.97a.516.516 0 0 1-.515.514h-2.314a.516.516 0 0 1-.514-.514V6.659c0-.283.232-.514.514-.514h1.286c.231 0 .36.077.463.18.205.18.334.437.694.437.745 0 1.285-.9 2.828-.9 2.7 0 4.756 2.083 4.756 4.782v7.842zm5.296-3.985c.129.9.695 1.44 1.98 1.44 1.311 0 1.877-.592 2.006-1.44.154-1.029.154-2.828 0-3.857-.129-.848-.695-1.44-2.006-1.44-1.285 0-1.825.463-1.98 1.44-.154 1.029-.154 2.828 0 3.857zm-3.342-3.857c.334-2.7 2.185-4.782 5.322-4.782 3.163 0 5.014 2.083 5.348 4.782.128 1.029.128 2.828 0 3.857-.334 2.7-2.185 4.782-5.322 4.782-3.163 0-5.014-2.083-5.348-4.782-.128-1.029-.128-2.828 0-3.857zm16.11 7.945c0 .205-.18.411-.412.411h-2.52a.423.423 0 0 1-.41-.411V6.556c0-.206.18-.411.41-.411h2.52c.232 0 .412.205.412.411V18.59zm.128-14.655c0 .231-.18.411-.411.411h-2.777a.406.406 0 0 1-.411-.411V1.157c0-.206.18-.411.411-.411h2.777c.231 0 .411.205.411.411v2.777zm11.74 6.582h-1.929c-.257 0-.514-.103-.591-.643-.129-.849-1.106-1.183-2.057-1.183-1.157 0-2.057.334-2.057 1.054 0 .772 1.003.849 2.057 1.054 2.262.437 5.45.772 5.45 4.294 0 2.545-2.519 4.19-5.45 4.19-2.828 0-5.502-1.259-5.502-4.498 0-.283.231-.515.514-.515h1.954c.617 0 .72.206.771.643.103 1.003 1.08 1.337 2.263 1.337 1.388 0 2.365-.411 2.365-1.208 0-.875-1.182-1.029-2.365-1.183-2.108-.283-5.168-1.106-5.168-4.114 0-2.288 2.674-3.882 5.168-3.882 2.314 0 5.09 1.157 5.09 4.14a.516.516 0 0 1-.514.514zm13.908 1.08c-3.214-.72-5.759-2.135-5.759-5.451C72.282 3.11 74.776.72 78.17.72c3.445 0 5.913 2.391 5.913 5.425v.386a.516.516 0 0 1-.514.514h-2.597a.516.516 0 0 1-.514-.514v-.386c0-1.029-.823-1.928-2.288-1.928-1.44 0-2.237.77-2.237 1.8 0 .976.951 1.593 2.288 1.85 3.574.72 6.222 2.211 6.222 5.785 0 3.343-2.622 5.63-6.273 5.63-3.548 0-6.12-2.493-6.12-5.63v-.771c0-.283.232-.514.515-.514h2.597c.282 0 .514.231.514.514v.771c0 1.183.9 2.108 2.494 2.108 1.542 0 2.545-.9 2.545-2.108 0-1.105-.746-1.62-2.674-2.057zM89.214 14.5c.129.9.695 1.44 1.98 1.44 1.311 0 1.877-.592 2.006-1.44.154-1.029.154-2.828 0-3.857-.129-.848-.695-1.44-2.006-1.44-1.285 0-1.825.463-1.98 1.44-.154 1.029-.154 2.828 0 3.857zm-3.342-3.857c.334-2.7 2.185-4.782 5.322-4.782 3.163 0 5.014 2.083 5.348 4.782.128 1.029.128 2.828 0 3.857-.334 2.7-2.185 4.782-5.322 4.782-3.163 0-5.014-2.083-5.348-4.782-.128-1.029-.128-2.828 0-3.857zm16.123 7.842a.516.516 0 0 1-.515.514h-2.314a.516.516 0 0 1-.514-.514V1.26c0-.283.232-.514.514-.514h2.314c.283 0 .515.231.515.514v17.226zm6.383-4.73c-1.105 0-1.31.899-1.31 1.285 0 .95.77 1.362 1.696 1.362 1.465 0 2.597-.437 2.597-1.774v-.617c0-.154-.103-.257-.257-.257h-2.726zm-.9-3.986c-.102.437-.231.489-.694.489h-1.85a.516.516 0 0 1-.515-.515c0-2.03 1.877-3.882 4.962-3.882 3.111 0 5.142 1.671 5.142 4.654v7.97a.516.516 0 0 1-.514.514h-1.286a.417.417 0 0 1-.36-.18c-.154-.206-.18-.514-.514-.514-.463 0-1.182.977-3.085.977-2.982 0-4.834-1.543-4.834-4.242 0-1.774 1.466-4.011 4.423-4.011h2.622c.154 0 .257-.103.257-.257v-.412c0-1.054-.848-1.568-1.98-1.568-.54 0-1.594.154-1.774.977zm16.095-.54c-1.928 0-3.343 1.028-3.343 3.111v6.145a.516.516 0 0 1-.514.514h-2.314a.516.516 0 0 1-.514-.514V6.659c0-.283.231-.514.514-.514h1.286c.205 0 .463.128.54.334.154.437.257 1.08.694 1.08.797 0 1.131-1.414 3.676-1.414h.875c.282 0 .514.231.514.514v2.057a.516.516 0 0 1-.514.514h-.9zm12.263 2.828v6.428a.516.516 0 0 1-.514.514h-2.571a.516.516 0 0 1-.514-.514V1.517c0-.283.23-.514.514-.514h8.998c.283 0 .514.231.514.514v2.571a.516.516 0 0 1-.514.514h-5.656c-.154 0-.257.103-.257.257v3.086c0 .154.103.257.257.257h5.4c.282 0 .513.231.513.514v2.57a.516.516 0 0 1-.514.515h-5.399c-.154 0-.257.103-.257.257zm10.942 2.443c.128.9.694 1.44 1.98 1.44 1.31 0 1.876-.592 2.005-1.44.154-1.029.154-2.828 0-3.857-.129-.848-.694-1.44-2.005-1.44-1.286 0-1.826.463-1.98 1.44-.154 1.029-.154 2.828 0 3.857zm-3.342-3.857c.334-2.7 2.185-4.782 5.322-4.782 3.162 0 5.013 2.083 5.347 4.782.129 1.029.129 2.828 0 3.857-.334 2.7-2.185 4.782-5.322 4.782-3.162 0-5.013-2.083-5.347-4.782-.129-1.029-.129-2.828 0-3.857zm19.408-1.414c-1.928 0-3.342 1.028-3.342 3.111v6.145a.516.516 0 0 1-.515.514h-2.314a.516.516 0 0 1-.514-.514V6.659c0-.283.232-.514.514-.514h1.286c.206 0 .463.128.54.334.154.437.257 1.08.694 1.08.797 0 1.131-1.414 3.677-1.414h.874c.283 0 .514.231.514.514v2.057a.516.516 0 0 1-.514.514h-.9zm15.271 2.468l-1.234-6.17c-.026-.077-.051-.103-.128-.103h-.052c-.077 0-.103.026-.128.103l-1.234 6.17c-.052.206.05.283.205.283h2.366c.154 0 .257-.077.205-.283zm.926 4.268c-.052-.206-.155-.385-.386-.385h-3.908c-.231 0-.334.154-.385.385l-.72 2.648a.495.495 0 0 1-.489.386h-2.7c-.41 0-.565-.283-.514-.514l4.603-17.098a.495.495 0 0 1 .488-.385h3.445c.232 0 .437.154.489.385l4.576 17.098c.052.231-.103.514-.514.514h-2.7c-.231 0-.411-.154-.488-.386l-.797-2.648zm9.147 2.52a.516.516 0 0 1-.514.514h-2.314a.516.516 0 0 1-.514-.514V1.26c0-.283.231-.514.514-.514h2.314c.283 0 .514.231.514.514v17.226zm5.852 0a.516.516 0 0 1-.515.514h-2.314a.516.516 0 0 1-.514-.514V1.26c0-.283.232-.514.514-.514h2.314c.283 0 .515.231.515.514v17.226z"/></svg>