<svg xmlns="http://www.w3.org/2000/svg" width="102" height="36" viewBox="0 0 102 36"><path fill="#FFF" fill-rule="evenodd" d="M4 15.072a.43.43 0 0 1-.429.428H1.43a.43.43 0 0 1-.43-.428V.93a.43.43 0 0 1 .429-.429H3.57a.43.43 0 0 1 .43.43v14.14zm4.918 0a.43.43 0 0 1-.428.428H6.562a.43.43 0 0 1-.429-.428V.717a.43.43 0 0 1 .429-.429H8.49a.43.43 0 0 1 .428.429v14.355zm4.877 0a.43.43 0 0 1-.429.428h-1.928a.43.43 0 0 1-.429-.428V.717a.43.43 0 0 1 .429-.429h1.928a.43.43 0 0 1 .429.429v14.355zm4.878.085c0 .172-.15.343-.343.343h-2.1a.352.352 0 0 1-.342-.343V5.13c0-.171.15-.343.343-.343h2.1c.192 0 .342.172.342.343v10.027zm.107-12.212c0 .193-.15.343-.343.343h-2.314a.338.338 0 0 1-.342-.343V.63c0-.172.15-.343.342-.343h2.314c.193 0 .343.171.343.343v2.314zm10.721 12.127a.43.43 0 0 1-.428.428h-1.929a.43.43 0 0 1-.428-.428V8.515c0-.707-.579-1.264-1.607-1.264-1.007 0-1.607.536-1.607 1.179v6.642a.43.43 0 0 1-.428.428h-1.929a.43.43 0 0 1-.428-.428V5.216a.43.43 0 0 1 .428-.429h1.072c.192 0 .3.065.385.15.172.15.279.365.579.365.621 0 1.071-.75 2.357-.75 2.25 0 3.963 1.735 3.963 3.985v6.535zm4.414-3.321c.107.75.578 1.2 1.65 1.2 1.092 0 1.563-.493 1.67-1.2.129-.857.129-2.357 0-3.214-.107-.707-.578-1.2-1.67-1.2-1.072 0-1.522.386-1.65 1.2-.13.857-.13 2.357 0 3.214zm-2.786-3.214c.279-2.25 1.821-3.985 4.435-3.985 2.636 0 4.178 1.735 4.457 3.985.107.857.107 2.357 0 3.214-.279 2.25-1.821 3.985-4.435 3.985-2.636 0-4.178-1.736-4.457-3.985-.107-.857-.107-2.357 0-3.214zm13.425 6.62c0 .172-.15.343-.343.343h-2.1a.352.352 0 0 1-.342-.343V5.13c0-.171.15-.343.343-.343h2.1c.192 0 .342.172.342.343v10.027zm.107-12.212c0 .193-.15.343-.343.343h-2.314a.338.338 0 0 1-.342-.343V.63c0-.172.15-.343.342-.343h2.314c.193 0 .343.171.343.343v2.314zm9.783 5.485h-1.607c-.214 0-.429-.086-.493-.536-.107-.707-.921-.986-1.714-.986-.964 0-1.714.279-1.714.879 0 .643.836.707 1.714.878 1.885.365 4.542.643 4.542 3.578 0 2.121-2.1 3.493-4.542 3.493-2.357 0-4.585-1.05-4.585-3.75a.43.43 0 0 1 .429-.428h1.628c.514 0 .6.171.643.535.085.836.9 1.114 1.885 1.114 1.157 0 1.971-.342 1.971-1.006 0-.729-.985-.858-1.971-.986-1.757-.236-4.307-.921-4.307-3.428 0-1.907 2.229-3.235 4.307-3.235 1.928 0 4.242.964 4.242 3.45a.43.43 0 0 1-.428.428zM5.242 29.33c-2.678-.6-4.8-1.779-4.8-4.543 0-2.528 2.08-4.52 4.907-4.52 2.871 0 4.928 1.992 4.928 4.52v.322a.43.43 0 0 1-.428.428H7.685a.43.43 0 0 1-.429-.428v-.322c0-.857-.685-1.607-1.907-1.607-1.2 0-1.864.643-1.864 1.5 0 .814.793 1.329 1.907 1.543 2.978.6 5.185 1.842 5.185 4.82 0 2.786-2.185 4.693-5.228 4.693-2.956 0-5.099-2.079-5.099-4.692V30.4a.43.43 0 0 1 .429-.429h2.164a.43.43 0 0 1 .428.429v.643c0 .985.75 1.756 2.078 1.756 1.286 0 2.121-.75 2.121-1.756 0-.922-.62-1.35-2.228-1.714zm9.311 2.42c.107.75.579 1.2 1.65 1.2 1.093 0 1.564-.492 1.671-1.2.129-.856.129-2.356 0-3.213-.107-.707-.578-1.2-1.67-1.2-1.072 0-1.522.386-1.65 1.2-.13.857-.13 2.357 0 3.214zm-2.785-3.213c.279-2.25 1.821-3.985 4.435-3.985 2.635 0 4.178 1.735 4.456 3.985.108.857.108 2.357 0 3.214-.278 2.25-1.82 3.985-4.435 3.985-2.635 0-4.177-1.736-4.456-3.985-.107-.857-.107-2.357 0-3.214zm13.435 6.535a.43.43 0 0 1-.428.428h-1.928a.43.43 0 0 1-.429-.428V20.717a.43.43 0 0 1 .429-.429h1.928a.43.43 0 0 1 .428.429v14.355zm5.32-3.943c-.921 0-1.092.75-1.092 1.072 0 .792.642 1.135 1.414 1.135 1.22 0 2.164-.364 2.164-1.478v-.514c0-.129-.086-.215-.215-.215h-2.27zm-.75-3.32c-.085.364-.193.406-.578.406h-1.543a.43.43 0 0 1-.428-.428c0-1.693 1.564-3.235 4.135-3.235 2.592 0 4.285 1.392 4.285 3.878v6.642a.43.43 0 0 1-.429.428h-1.07a.347.347 0 0 1-.3-.15c-.13-.171-.15-.428-.43-.428-.385 0-.985.814-2.57.814-2.486 0-4.028-1.286-4.028-3.535 0-1.479 1.22-3.343 3.685-3.343h2.185c.129 0 .214-.086.214-.214V28.3c0-.878-.707-1.307-1.65-1.307-.45 0-1.328.129-1.478.814zm13.412-.45c-1.607 0-2.785.856-2.785 2.592v5.12a.43.43 0 0 1-.429.429h-1.928a.43.43 0 0 1-.428-.428v-9.856a.43.43 0 0 1 .428-.429h1.071c.172 0 .386.108.45.279.129.364.215.9.579.9.664 0 .943-1.179 3.064-1.179h.728a.43.43 0 0 1 .429.429v1.714a.43.43 0 0 1-.429.428h-.75zm10.22 2.356v5.357a.43.43 0 0 1-.429.428h-2.142a.43.43 0 0 1-.429-.428V20.93a.43.43 0 0 1 .429-.429h7.498a.43.43 0 0 1 .429.429v2.142a.43.43 0 0 1-.429.429H53.62c-.129 0-.214.086-.214.214v2.571c0 .129.085.214.214.214h4.5a.43.43 0 0 1 .428.429v2.142a.43.43 0 0 1-.429.429h-4.5c-.128 0-.213.086-.213.214zm9.118 2.036c.107.75.578 1.2 1.65 1.2 1.092 0 1.564-.493 1.67-1.2.13-.857.13-2.357 0-3.214-.106-.707-.578-1.2-1.67-1.2-1.072 0-1.522.386-1.65 1.2-.129.857-.129 2.357 0 3.214zm-2.785-3.214c.278-2.25 1.82-3.985 4.435-3.985 2.635 0 4.178 1.735 4.456 3.985.107.857.107 2.357 0 3.214-.278 2.25-1.821 3.985-4.435 3.985-2.635 0-4.178-1.736-4.456-3.985-.108-.857-.108-2.357 0-3.214zm16.173-1.179c-1.607 0-2.785.857-2.785 2.593v5.12a.43.43 0 0 1-.429.429H70.77a.43.43 0 0 1-.428-.428v-9.856a.43.43 0 0 1 .428-.429h1.071c.172 0 .386.108.45.279.129.364.215.9.579.9.664 0 .942-1.179 3.064-1.179h.728a.43.43 0 0 1 .429.429v1.714a.43.43 0 0 1-.429.428h-.75zm12.726 2.057l-1.028-5.142c-.022-.064-.043-.086-.107-.086h-.043c-.064 0-.086.022-.107.086l-1.029 5.142c-.042.172.043.236.172.236h1.97c.13 0 .215-.064.172-.236zm.772 3.557c-.043-.172-.129-.322-.322-.322h-3.256c-.193 0-.279.129-.322.322l-.6 2.207a.413.413 0 0 1-.407.321h-2.25c-.342 0-.47-.236-.428-.428l3.835-14.248a.413.413 0 0 1 .407-.322h2.871c.193 0 .364.129.407.322l3.814 14.248c.043.192-.086.428-.428.428h-2.25c-.193 0-.343-.129-.407-.321l-.664-2.207zm7.622 2.1a.43.43 0 0 1-.428.428h-1.928a.43.43 0 0 1-.429-.428V20.717a.43.43 0 0 1 .429-.429h1.928a.43.43 0 0 1 .428.429v14.355zm4.876 0a.43.43 0 0 1-.428.428h-1.928a.43.43 0 0 1-.429-.428V20.717a.43.43 0 0 1 .429-.429h1.928a.43.43 0 0 1 .428.429v14.355z"/></svg>