<svg xmlns="http://www.w3.org/2000/svg" width="56" height="56" viewBox="0 0 56 56"><path fill="#FACE0C" d="M5.82 38.134l10.11-4.187a1.31 1.31 0 0 1 1.438.293l.65.665a1.31 1.31 0 0 1-.007 1.846l-7.856 7.856a1.751 1.751 0 0 1-2.6-.14 26.218 26.218 0 0 1-2.6-3.874 1.75 1.75 0 0 1 .865-2.459zm44.36-20.268l-9.426 3.904a1.335 1.335 0 0 1-1.846-1.233v-1.654c0-.354.142-.694.392-.945l6.544-6.545a1.752 1.752 0 0 1 2.6.14 26.178 26.178 0 0 1 2.601 3.875c.5.913.097 2.06-.865 2.458zm-11.272 7.947v-.507c0-.531.32-1.009.81-1.212l11.131-4.61a1.75 1.75 0 0 1 2.35 1.126c.434 1.486.736 3.017.902 4.579a1.752 1.752 0 0 1-1.74 1.936H40.22a1.312 1.312 0 0 1-1.313-1.313zm0 4.881v-.506c0-.725.588-1.313 1.312-1.313h12.14c1.04 0 1.85.903 1.74 1.937a26.254 26.254 0 0 1-.902 4.58 1.75 1.75 0 0 1-2.35 1.125l-11.13-4.61a1.313 1.313 0 0 1-.811-1.213zm.07 7.046l-1.37-3.307a.815.815 0 0 1 1.065-1.065l11.507 4.766a1.751 1.751 0 0 1 .865 2.459 26.224 26.224 0 0 1-2.6 3.874 1.751 1.751 0 0 1-2.601.14l-6.866-6.867zm-2.753 7.483v-2.808c0-.362.113-.717.322-1.013l.901-1.271a.875.875 0 0 1 1.333-.113l5.826 5.826a1.75 1.75 0 0 1-.14 2.6 26.14 26.14 0 0 1-3.875 2.6 1.75 1.75 0 0 1-2.458-.864l-1.776-4.288a1.753 1.753 0 0 1-.133-.67zM29.17 49.21l.594-.89a.876.876 0 0 1 1.062-.323l1.053.437a1.75 1.75 0 0 0 1.78-.265l.393-.322a.874.874 0 0 1 1.363.342l1.101 2.659a1.75 1.75 0 0 1-1.126 2.35 26.097 26.097 0 0 1-4.578.901 1.75 1.75 0 0 1-1.937-1.74v-2.177c0-.346.102-.684.295-.972zm-5.372-6.668a.58.58 0 0 1 .168.357l.166 1.676v2.371a1.75 1.75 0 0 0 1.156 1.647l.68.244c.693.25 1.157.908 1.157 1.647v1.875c0 1.04-.903 1.85-1.937 1.74a26.091 26.091 0 0 1-4.58-.9 1.751 1.751 0 0 1-1.126-2.351l3.363-8.117a.585.585 0 0 1 .953-.189zm-2.444-6.147c.103.103.134.26.078.394l-.544 1.315a1.75 1.75 0 0 0 .379 1.907c.347.346.45.868.262 1.321l-3.663 8.846a1.75 1.75 0 0 1-2.459.866 26.232 26.232 0 0 1-3.875-2.6 1.752 1.752 0 0 1-.139-2.601l9.449-9.448a.363.363 0 0 1 .512 0zm-6.085-7.008l1.155 1.156a.87.87 0 0 1-.283 1.42l-10.99 4.553a1.75 1.75 0 0 1-2.35-1.126 26.091 26.091 0 0 1-.901-4.579 1.751 1.751 0 0 1 1.74-1.937h10.391c.464 0 .91.185 1.238.513zm-.513-4.783l-.29 1.463a1.313 1.313 0 0 1-1.288 1.057H3.64a1.75 1.75 0 0 1-1.74-1.936c.164-1.562.467-3.093.9-4.58a1.75 1.75 0 0 1 2.35-1.125l8.82 3.653c.58.24.909.854.786 1.468zm1.246-6.268l-.015.071a1.75 1.75 0 0 0 .496 1.592l.663.646a.303.303 0 0 1-.096.498l-.989.41c-.427.178-.91.178-1.338 0L5.82 17.866a1.75 1.75 0 0 1-.866-2.458 26.173 26.173 0 0 1 2.6-3.875 1.752 1.752 0 0 1 2.6-.14l5.368 5.368a1.75 1.75 0 0 1 .479 1.576zm5.373-3.455a.767.767 0 0 1-.708.474h-2.625a3.5 3.5 0 0 1-2.474-1.025l-4.175-4.175a1.75 1.75 0 0 1 .139-2.6 26.164 26.164 0 0 1 3.875-2.6 1.75 1.75 0 0 1 2.459.865l3.51 8.474a.767.767 0 0 1 0 .587zm4.438-6.132h-3.671a1.75 1.75 0 0 1-1.616-1.08l-1.044-2.518a1.75 1.75 0 0 1 1.127-2.35 26.173 26.173 0 0 1 4.579-.902c1.034-.11 1.937.7 1.937 1.74v3.797c0 .726-.588 1.313-1.313 1.313zm8.336 0h-3.962a1.312 1.312 0 0 1-1.312-1.313V3.642c0-1.04.902-1.85 1.937-1.741a26.18 26.18 0 0 1 4.578.902 1.75 1.75 0 0 1 1.126 2.35L35.361 7.94c-.203.49-.681.81-1.212.81zm3.601 5.827a7.016 7.016 0 0 1-.828-3.295l-.001-1.834c0-.46.09-.917.267-1.343l.945-2.284a1.75 1.75 0 0 1 2.458-.865 26.073 26.073 0 0 1 3.876 2.6 1.75 1.75 0 0 1 .139 2.6l-4.735 4.735a1.335 1.335 0 0 1-2.12-.314zM19.647 34.065l-.967-.986a.878.878 0 0 1-.25-.614v-1.667c0-.463-.185-.909-.514-1.237l-1.638-1.639a.876.876 0 0 1-.24-.79l.704-3.545a.873.873 0 0 1 .524-.637l1.036-.43a.873.873 0 0 0 .523-.638l.248-1.245a.88.88 0 0 0-.248-.797l-.644-.628a1.226 1.226 0 0 1 .855-2.106h2.143a1.75 1.75 0 0 0 1.617-1.08l.413-.999a1.75 1.75 0 0 0-.002-1.345l-.316-.756a1.75 1.75 0 0 1 1.614-2.426h8.92c.966 0 1.75.783 1.75 1.75 0 .802.197 1.59.576 2.298l.578 1.082a7 7 0 0 1 .828 3.302v11.31a3.5 3.5 0 0 1-.59 1.945l-.582.87a1.75 1.75 0 0 0-.162 1.643l.859 2.07a1.753 1.753 0 0 1-.19 1.682l-1.374 1.939a3.506 3.506 0 0 0-.644 2.024v2.409c0 .261-.117.51-.32.676l-1.2.985a.875.875 0 0 1-.89.132l-1.23-.51a1.75 1.75 0 0 0-2.126.644l-.273.41a.875.875 0 0 1-1.024.337l-.951-.342a.874.874 0 0 1-.578-.824V44.49l-.133-1.347a3.5 3.5 0 0 0-1.008-2.133l-1.823-1.822a.875.875 0 0 1-.19-.954l.637-1.537a.875.875 0 0 0-.19-.954l-1.387-1.388a.876.876 0 0 0-.954-.19l-.228.095a.875.875 0 0 1-.959-.195zM47.8 8.2C42.51 2.913 35.479 0 28 0 20.52 0 13.489 2.913 8.2 8.201 2.912 13.49 0 20.521 0 28c0 7.48 2.912 14.51 8.2 19.8C13.49 53.088 20.52 56 28 56c7.479 0 14.51-2.912 19.799-8.2C53.087 42.51 56 35.48 56 28c0-7.479-2.913-14.51-8.201-19.799z"/></svg>