<svg xmlns="http://www.w3.org/2000/svg" width="283" height="26" viewBox="0 0 283 26"><path fill-rule="evenodd" d="M5.04 1.116v23.76c0 .396-.324.72-.72.72H.72a.722.722 0 0 1-.72-.72V1.116C0 .72.324.396.72.396h3.6c.396 0 .72.324.72.72zm9.26-.36v24.12c0 .396-.324.72-.72.72h-3.24a.722.722 0 0 1-.72-.72V.756c0-.396.324-.72.72-.72h3.24c.396 0 .72.324.72.72zm9.26 0v24.12c0 .396-.324.72-.72.72H19.6a.722.722 0 0 1-.72-.72V.756c0-.396.324-.72.72-.72h3.24c.396 0 .72.324.72.72zM33 .612V4.5a.569.569 0 0 1-.576.576h-3.888a.569.569 0 0 1-.576-.576V.612c0-.288.252-.576.576-.576h3.888c.324 0 .576.288.576.576zm-.18 7.56V25.02a.592.592 0 0 1-.576.576h-3.528a.592.592 0 0 1-.576-.576V8.172c0-.288.252-.576.576-.576h3.528c.324 0 .576.288.576.576zm19.16 5.724v10.98c0 .396-.324.72-.72.72h-3.24a.722.722 0 0 1-.72-.72V13.86c0-1.188-.972-2.124-2.7-2.124-1.692 0-2.7.9-2.7 1.98v11.16c0 .396-.324.72-.72.72h-3.24a.722.722 0 0 1-.72-.72V8.316c0-.396.324-.72.72-.72h1.8c.324 0 .504.108.648.252.288.252.468.612.972.612 1.044 0 1.8-1.26 3.96-1.26 3.78 0 6.66 2.916 6.66 6.696zm8.216 0c-.216 1.44-.216 3.96 0 5.4.18 1.26.972 2.016 2.772 2.016 1.836 0 2.628-.828 2.808-2.016.216-1.44.216-3.96 0-5.4-.18-1.188-.972-2.016-2.808-2.016-1.8 0-2.556.648-2.772 2.016zm-4.68 5.4c-.18-1.44-.18-3.96 0-5.4.468-3.78 3.06-6.696 7.452-6.696 4.428 0 7.02 2.916 7.488 6.696.18 1.44.18 3.96 0 5.4-.468 3.78-3.06 6.696-7.452 6.696-4.428 0-7.02-2.916-7.488-6.696zM79.212.612V4.5a.569.569 0 0 1-.576.576h-3.888a.569.569 0 0 1-.576-.576V.612c0-.288.252-.576.576-.576h3.888c.324 0 .576.288.576.576zm-.18 7.56V25.02a.592.592 0 0 1-.576.576h-3.528a.592.592 0 0 1-.576-.576V8.172c0-.288.252-.576.576-.576h3.528c.324 0 .576.288.576.576zm18.224 4.824c0 .396-.324.72-.72.72h-2.7c-.36 0-.72-.144-.828-.9-.18-1.188-1.548-1.656-2.88-1.656-1.62 0-2.88.468-2.88 1.476 0 1.08 1.404 1.188 2.88 1.476 3.168.612 7.632 1.08 7.632 6.012 0 3.564-3.528 5.868-7.632 5.868-3.96 0-7.704-1.764-7.704-6.3 0-.396.324-.72.72-.72h2.736c.864 0 1.008.288 1.08.9.144 1.404 1.512 1.872 3.168 1.872 1.944 0 3.312-.576 3.312-1.692 0-1.224-1.656-1.44-3.312-1.656-2.952-.396-7.236-1.548-7.236-5.76 0-3.204 3.744-5.436 7.236-5.436 3.24 0 7.128 1.62 7.128 5.796zm22.948 5.112c0-1.548-1.044-2.268-3.744-2.88-4.5-1.008-8.064-2.988-8.064-7.632 0-4.248 3.492-7.596 8.244-7.596 4.824 0 8.28 3.348 8.28 7.596v.54c0 .396-.324.72-.72.72h-3.636a.722.722 0 0 1-.72-.72v-.54c0-1.44-1.152-2.7-3.204-2.7-2.016 0-3.132 1.08-3.132 2.52 0 1.368 1.332 2.232 3.204 2.592 5.004 1.008 8.712 3.096 8.712 8.1 0 4.68-3.672 7.884-8.784 7.884-4.968 0-8.568-3.492-8.568-7.884v-1.08c0-.396.324-.72.72-.72h3.636c.396 0 .72.324.72.72v1.08c0 1.656 1.26 2.952 3.492 2.952 2.16 0 3.564-1.26 3.564-2.952zm12.536-4.212c-.216 1.44-.216 3.96 0 5.4.18 1.26.972 2.016 2.772 2.016 1.836 0 2.628-.828 2.808-2.016.216-1.44.216-3.96 0-5.4-.18-1.188-.972-2.016-2.808-2.016-1.8 0-2.556.648-2.772 2.016zm-4.68 5.4c-.18-1.44-.18-3.96 0-5.4.468-3.78 3.06-6.696 7.452-6.696 4.428 0 7.02 2.916 7.488 6.696.18 1.44.18 3.96 0 5.4-.468 3.78-3.06 6.696-7.452 6.696-4.428 0-7.02-2.916-7.488-6.696zM150.856.756v24.12c0 .396-.324.72-.72.72h-3.24a.722.722 0 0 1-.72-.72V.756c0-.396.324-.72.72-.72h3.24c.396 0 .72.324.72.72zm13.832 17.496h-3.816c-1.548 0-1.836 1.26-1.836 1.8 0 1.332 1.08 1.908 2.376 1.908 2.052 0 3.636-.612 3.636-2.484v-.864c0-.216-.144-.36-.36-.36zm-2.592-6.948c-.756 0-2.232.216-2.484 1.368-.144.612-.324.684-.972.684h-2.592a.722.722 0 0 1-.72-.72c0-2.844 2.628-5.436 6.948-5.436 4.356 0 7.2 2.34 7.2 6.516v11.16c0 .396-.324.72-.72.72h-1.8c-.216 0-.36-.072-.504-.252-.216-.288-.252-.72-.72-.72-.648 0-1.656 1.368-4.32 1.368-4.176 0-6.768-2.16-6.768-5.94 0-2.484 2.052-5.616 6.192-5.616h3.672c.216 0 .36-.144.36-.36V13.5c0-1.476-1.188-2.196-2.772-2.196zm22.112.612h-1.26c-2.7 0-4.68 1.44-4.68 4.356v8.604c0 .396-.324.72-.72.72h-3.24a.722.722 0 0 1-.72-.72V8.316c0-.396.324-.72.72-.72h1.8c.288 0 .648.18.756.468.216.612.36 1.512.972 1.512 1.116 0 1.584-1.98 5.148-1.98h1.224c.396 0 .72.324.72.72v2.88c0 .396-.324.72-.72.72zm22.12-7.2h-2.16c-1.188 0-2.16.792-2.16 1.98v.648c0 .216.144.36.36.36h4.32c.396 0 .72.324.72.72v2.88c0 .396-.324.72-.72.72h-4.32c-.216 0-.36.144-.36.36v12.492c0 .396-.324.72-.72.72h-3.24a.722.722 0 0 1-.72-.72V12.384c0-.216-.144-.36-.36-.36h-2.88a.722.722 0 0 1-.72-.72v-2.88c0-.396.324-.72.72-.72h2.88c.216 0 .36-.144.36-.36v-.72c0-3.744 3.096-6.588 6.84-6.588h2.16c.396 0 .72.324.72.72v3.24c0 .396-.324.72-.72.72zm6.668 9.18c-.216 1.44-.216 3.96 0 5.4.18 1.26.972 2.016 2.772 2.016 1.836 0 2.628-.828 2.808-2.016.216-1.44.216-3.96 0-5.4-.18-1.188-.972-2.016-2.808-2.016-1.8 0-2.556.648-2.772 2.016zm-4.68 5.4c-.18-1.44-.18-3.96 0-5.4.468-3.78 3.06-6.696 7.452-6.696 4.428 0 7.02 2.916 7.488 6.696.18 1.44.18 3.96 0 5.4-.468 3.78-3.06 6.696-7.452 6.696-4.428 0-7.02-2.916-7.488-6.696zm29.276-7.38h-1.26c-2.7 0-4.68 1.44-4.68 4.356v8.604c0 .396-.324.72-.72.72h-3.24a.722.722 0 0 1-.72-.72V8.316c0-.396.324-.72.72-.72h1.8c.288 0 .648.18.756.468.216.612.36 1.512.972 1.512 1.116 0 1.584-1.98 5.148-1.98h1.224c.396 0 .72.324.72.72v2.88c0 .396-.324.72-.72.72zm20.284 3.852c.216 0 .36-.108.288-.396l-1.728-8.64c-.036-.108-.072-.144-.18-.144h-.072c-.108 0-.144.036-.18.144l-1.728 8.64c-.072.288.072.396.288.396h3.312zm2.7 9.288l-1.116-3.708c-.072-.288-.216-.54-.54-.54h-5.472c-.324 0-.468.216-.54.54l-1.008 3.708a.694.694 0 0 1-.684.54h-3.78c-.576 0-.792-.396-.72-.72L253.16.936a.694.694 0 0 1 .684-.54h4.824c.324 0 .612.216.684.54l6.408 23.94c.072.324-.144.72-.72.72h-3.78c-.324 0-.576-.216-.684-.54zm12.248-24.3v24.12c0 .396-.324.72-.72.72h-3.24a.722.722 0 0 1-.72-.72V.756c0-.396.324-.72.72-.72h3.24c.396 0 .72.324.72.72zm9.26 0v24.12c0 .396-.324.72-.72.72h-3.24a.722.722 0 0 1-.72-.72V.756c0-.396.324-.72.72-.72h3.24c.396 0 .72.324.72.72z"/></svg>