<svg xmlns="http://www.w3.org/2000/svg" width="67" height="28" viewBox="0 0 67 28"><path fill="#FFF" d="M3.25 10.578c0 .25-.094.36-.344.36H.656c-.25 0-.344-.11-.344-.36V.36C.313.11.406 0 .656 0h2.25c.25 0 .344.11.344.36v10.218zm3.781.016c0 .25-.094.344-.344.344H4.844c-.25 0-.344-.094-.344-.344V.344c0-.25.094-.344.344-.344h1.843c.25 0 .344.094.344.344v10.25zm3.703 0c0 .25-.093.344-.343.344H8.547c-.25 0-.344-.094-.344-.344V.344c0-.25.094-.344.344-.344h1.844c.25 0 .343.094.343.344v10.25zm3.703 0c0 .25-.093.344-.343.344H12.25c-.25 0-.344-.094-.344-.344V3.469c0-.25.094-.344.344-.344h1.844c.25 0 .343.094.343.344v7.125zm0-8.672c0 .25-.093.344-.343.344H12.25c-.25 0-.344-.094-.344-.344V.344c0-.25.094-.344.344-.344h1.844c.25 0 .343.094.343.344v1.578zm2.875 1.203c.422 0 .516.047.657.281.062.11.125.156.203.156.062 0 .125-.03.203-.093.453-.36.812-.5 1.375-.5 1.328 0 1.953 1.094 1.953 2.75v4.86c0 .25-.094.358-.344.358h-1.843c-.25 0-.344-.109-.344-.359V6.516c0-.563-.172-.891-.485-.891-.375 0-.546.328-.546.89v4.063c0 .25-.094.36-.344.36h-1.844c-.25 0-.344-.11-.344-.36V3.484c0-.25.094-.359.344-.359h1.36zm7.735 3.906c0 1.032.172 1.407.61 1.407.437 0 .609-.376.609-1.407 0-1.031-.172-1.406-.61-1.406-.437 0-.61.375-.61 1.406zm-2.64 0c0-2.922 1.187-4.062 3.25-4.062 2.062 0 3.25 1.14 3.25 4.062 0 2.922-1.188 4.063-3.25 4.063-2.063 0-3.25-1.14-3.25-4.063zm9.827 3.563c0 .25-.094.344-.344.344h-1.843c-.25 0-.344-.094-.344-.344V3.469c0-.25.094-.344.344-.344h1.843c.25 0 .344.094.344.344v7.125zm0-8.672c0 .25-.094.344-.344.344h-1.843c-.25 0-.344-.094-.344-.344V.344c0-.25.094-.344.344-.344h1.843c.25 0 .344.094.344.344v1.578zM36 8.906c.36 0 .531-.14.531-.375 0-.265-.203-.422-1.031-.578-1.578-.297-2.344-.812-2.344-2.453 0-1.5 1.094-2.531 2.828-2.531 1.469 0 2.844.64 2.844 2.484v.11c0 .218-.11.328-.328.328H37c-.25 0-.344-.094-.344-.297 0-.266-.203-.438-.562-.438-.344 0-.532.14-.532.39 0 .282.266.438 1.282.61 1.453.235 2.125.985 2.125 2.328 0 1.579-1.047 2.61-2.938 2.61-1.703 0-2.906-.828-2.906-2.453v-.11c0-.219.094-.328.328-.328h1.594c.25 0 .343.094.36.297.015.25.187.406.593.406zM.406 23.562h1.906c.25 0 .344.11.344.36 0 .547.266.75.64.75.376 0 .657-.25.657-.625 0-.469-.265-.656-.656-.703C1.157 23.094 0 22.187 0 19.89c0-2.328 1.281-3.547 3.281-3.547s3.313 1.297 3.313 3.5c0 .422-.157.5-.39.5H4.296c-.25 0-.344-.11-.344-.36 0-.468-.281-.703-.656-.703s-.656.25-.656.625c0 .469.28.657.906.719 1.906.188 3.172 1.281 3.172 3.422 0 2.328-1.407 3.547-3.407 3.547C1.156 27.594 0 26.375 0 24.078c0-.453.172-.515.406-.515zm9.39-.03c0 1.03.173 1.405.61 1.405.438 0 .61-.375.61-1.406s-.172-1.406-.61-1.406c-.437 0-.61.375-.61 1.406zm-2.64 0c0-2.923 1.188-4.063 3.25-4.063 2.063 0 3.25 1.14 3.25 4.062 0 2.922-1.187 4.063-3.25 4.063-2.062 0-3.25-1.14-3.25-4.063zm9.828 3.562c0 .25-.094.343-.344.343h-1.843c-.25 0-.344-.093-.344-.343v-10.25c0-.25.094-.344.344-.344h1.843c.25 0 .344.094.344.344v10.25zm4.047-1.469c.297 0 .469-.188.469-.688 0-.5-.172-.687-.469-.687s-.469.188-.469.688c0 .5.172.687.47.687zm-2.172-3.61c-.14 0-.203-.093-.25-.265l-.39-1.438a.786.786 0 0 1-.032-.171c0-.141.094-.203.266-.266.656-.25 1.39-.406 2.312-.406 1.875 0 3.188.812 3.188 3.64v3.985c0 .25-.094.343-.344.343h-1.515c-.235 0-.375-.078-.485-.25-.078-.125-.125-.187-.219-.187-.078 0-.156.047-.234.11a2.131 2.131 0 0 1-1.36.484c-1.25 0-1.937-.969-1.937-2.657 0-1.859.688-2.656 2.031-2.656.547 0 .907.14 1.141.297.125.094.188.11.234.11.079 0 .125-.063.125-.188 0-.531-.625-.766-1.187-.766-.406 0-.719.094-1.125.235a.689.689 0 0 1-.219.047zm9.297.407c-.469 0-.64.234-.64.703v3.953c0 .25-.094.36-.344.36h-1.844c-.25 0-.344-.11-.344-.36v-7.094c0-.25.094-.359.344-.359h1.36c.421 0 .515.047.656.281.062.11.125.157.203.157.062 0 .125-.032.203-.094.406-.313.765-.5 1.328-.5.281 0 .453.125.453.375v2.218c0 .25-.094.36-.344.36h-1.031zm7.28.937c-.25 0-.343.094-.343.344v3.375c0 .25-.094.36-.344.36h-2.046c-.25 0-.344-.11-.344-.36V16.86c0-.25.094-.359.344-.359h3.89c.25 0 .344.11.344.36v2.406c0 .25-.094.359-.344.359h-1.156c-.25 0-.344.094-.344.344v.265c0 .25.094.344.344.344h.922c.25 0 .344.11.344.36V23c0 .25-.094.36-.344.36h-.922zm4.548.172c0 1.032.171 1.407.609 1.407.437 0 .61-.375.61-1.407 0-1.031-.173-1.406-.61-1.406-.438 0-.61.375-.61 1.406zm-2.641 0c0-2.922 1.187-4.062 3.25-4.062 2.062 0 3.25 1.14 3.25 4.062 0 2.922-1.188 4.063-3.25 4.063-2.063 0-3.25-1.14-3.25-4.063zm10.469-1.11c-.47 0-.641.235-.641.704v3.953c0 .25-.094.36-.344.36h-1.844c-.25 0-.343-.11-.343-.36v-7.094c0-.25.093-.359.343-.359h1.36c.422 0 .515.047.656.281.063.11.125.157.203.157.063 0 .125-.032.203-.094.407-.313.766-.5 1.328-.5.282 0 .454.125.454.375v2.218c0 .25-.094.36-.344.36h-1.031zm7.046.438a1.39 1.39 0 0 0-.047.297c0 .125.11.172.281.172h.579c.171 0 .265-.062.265-.172a1.39 1.39 0 0 0-.047-.297l-.28-1.234c-.048-.203-.11-.328-.235-.328-.125 0-.172.125-.219.328l-.297 1.234zm-.625 4.157c-.094.375-.219.422-.64.422H51.67c-.204 0-.282-.094-.282-.25 0-.063.016-.11.032-.188l2.578-10.14c.078-.282.203-.36.453-.36h1.86c.25 0 .374.078.452.36L59.342 27c.016.078.032.125.032.188 0 .156-.078.25-.282.25h-1.937c-.422 0-.547-.047-.64-.422l-.235-.953c-.078-.282-.188-.344-.438-.344h-.937c-.25 0-.375.062-.438.343l-.234.954zm8.297.078c0 .25-.094.343-.344.343h-1.844c-.25 0-.343-.093-.343-.343v-10.25c0-.25.093-.344.343-.344h1.844c.25 0 .344.094.344.344v10.25zm3.703 0c0 .25-.094.343-.344.343h-1.844c-.25 0-.343-.093-.343-.343v-10.25c0-.25.093-.344.343-.344h1.844c.25 0 .344.094.344.344v10.25z"/></svg>