<svg xmlns="http://www.w3.org/2000/svg" width="98" height="60" viewBox="0 0 98 60">
  <defs>
    <filter id="wordmark-mobile-a" width="121.9%" height="197.2%" x="-10.9%" y="-48.6%" filterUnits="objectBoundingBox">
      <feOffset dy="2" in="SourceAlpha" result="shadowOffsetOuter1"/>
      <feGaussianBlur in="shadowOffsetOuter1" result="shadowBlurOuter1" stdDeviation="8"/>
      <feColorMatrix in="shadowBlurOuter1" result="shadowMatrixOuter1" values="0 0 0 0 0   0 0 0 0 0   0 0 0 0 0  0 0 0 0.5 0"/>
      <feMerge>
        <feMergeNode in="shadowMatrixOuter1"/>
        <feMergeNode in="SourceGraphic"/>
      </feMerge>
    </filter>
  </defs>
  <path fill="#FDFDFD" d="M52.9406125,16.8906062 C52.9406125,17.1406062 52.8468625,17.2499812 52.5968625,17.2499812 L50.3468625,17.2499812 C50.0968625,17.2499812 50.0031125,17.1406062 50.0031125,16.8906062 L50.0031125,6.67185625 C50.0031125,6.42185625 50.0968625,6.31248125 50.3468625,6.31248125 L52.5968625,6.31248125 C52.8468625,6.31248125 52.9406125,6.42185625 52.9406125,6.67185625 L52.9406125,16.8906062 Z M56.7218,16.9062312 C56.7218,17.1562312 56.62805,17.2499812 56.37805,17.2499812 L54.5343,17.2499812 C54.2843,17.2499812 54.19055,17.1562312 54.19055,16.9062312 L54.19055,6.65623125 C54.19055,6.40623125 54.2843,6.31248125 54.5343,6.31248125 L56.37805,6.31248125 C56.62805,6.31248125 56.7218,6.40623125 56.7218,6.65623125 L56.7218,16.9062312 Z M60.424925,16.9062312 C60.424925,17.1562312 60.331175,17.2499812 60.081175,17.2499812 L58.237425,17.2499812 C57.987425,17.2499812 57.893675,17.1562312 57.893675,16.9062312 L57.893675,6.65623125 C57.893675,6.40623125 57.987425,6.31248125 58.237425,6.31248125 L60.081175,6.31248125 C60.331175,6.31248125 60.424925,6.40623125 60.424925,6.65623125 L60.424925,16.9062312 Z M64.12805,16.9062313 C64.12805,17.1562313 64.0343,17.2499813 63.7843,17.2499813 L61.94055,17.2499813 C61.69055,17.2499813 61.5968,17.1562313 61.5968,16.9062313 L61.5968,9.78123125 C61.5968,9.53123125 61.69055,9.43748125 61.94055,9.43748125 L63.7843,9.43748125 C64.0343,9.43748125 64.12805,9.53123125 64.12805,9.78123125 L64.12805,16.9062313 Z M64.12805,8.23435625 C64.12805,8.48435625 64.0343,8.57810625 63.7843,8.57810625 L61.94055,8.57810625 C61.69055,8.57810625 61.5968,8.48435625 61.5968,8.23435625 L61.5968,6.65623125 C61.5968,6.40623125 61.69055,6.31248125 61.94055,6.31248125 L63.7843,6.31248125 C64.0343,6.31248125 64.12805,6.40623125 64.12805,6.65623125 L64.12805,8.23435625 Z M67.00305,9.43748125 C67.424925,9.43748125 67.518675,9.48435625 67.6593,9.71873125 C67.7218,9.82810625 67.7843,9.87498125 67.862425,9.87498125 C67.924925,9.87498125 67.987425,9.84373125 68.06555,9.78123125 C68.518675,9.42185625 68.87805,9.28123125 69.44055,9.28123125 C70.768675,9.28123125 71.393675,10.3749812 71.393675,12.0312312 L71.393675,16.8906063 C71.393675,17.1406063 71.299925,17.2499813 71.049925,17.2499813 L69.206175,17.2499813 C68.956175,17.2499813 68.862425,17.1406063 68.862425,16.8906063 L68.862425,12.8281062 C68.862425,12.2656062 68.69055,11.9374812 68.37805,11.9374812 C68.00305,11.9374812 67.831175,12.2656062 67.831175,12.8281062 L67.831175,16.8906063 C67.831175,17.1406063 67.737425,17.2499813 67.487425,17.2499813 L65.643675,17.2499813 C65.393675,17.2499813 65.299925,17.1406063 65.299925,16.8906063 L65.299925,9.79685625 C65.299925,9.54685625 65.393675,9.43748125 65.643675,9.43748125 L67.00305,9.43748125 Z M74.737425,13.3437312 C74.737425,14.3749812 74.9093,14.7499812 75.3468,14.7499812 C75.7843,14.7499812 75.956175,14.3749812 75.956175,13.3437312 C75.956175,12.3124812 75.7843,11.9374812 75.3468,11.9374812 C74.9093,11.9374812 74.737425,12.3124812 74.737425,13.3437312 Z M72.0968,13.3437312 C72.0968,10.4218562 73.2843,9.28123125 75.3468,9.28123125 C77.4093,9.28123125 78.5968,10.4218562 78.5968,13.3437312 C78.5968,16.2656063 77.4093,17.4062313 75.3468,17.4062313 C73.2843,17.4062313 72.0968,16.2656063 72.0968,13.3437312 Z M81.9248063,16.9062313 C81.9248063,17.1562313 81.8310563,17.2499813 81.5810563,17.2499813 L79.7373063,17.2499813 C79.4873063,17.2499813 79.3935563,17.1562313 79.3935563,16.9062313 L79.3935563,9.78123125 C79.3935563,9.53123125 79.4873063,9.43748125 79.7373063,9.43748125 L81.5810563,9.43748125 C81.8310563,9.43748125 81.9248063,9.53123125 81.9248063,9.78123125 L81.9248063,16.9062313 Z M81.9248063,8.23435625 C81.9248063,8.48435625 81.8310563,8.57810625 81.5810563,8.57810625 L79.7373063,8.57810625 C79.4873063,8.57810625 79.3935563,8.48435625 79.3935563,8.23435625 L79.3935563,6.65623125 C79.3935563,6.40623125 79.4873063,6.31248125 79.7373063,6.31248125 L81.5810563,6.31248125 C81.8310563,6.31248125 81.9248063,6.40623125 81.9248063,6.65623125 L81.9248063,8.23435625 Z M85.6904313,15.2187312 C86.0498063,15.2187312 86.2216813,15.0781062 86.2216813,14.8437312 C86.2216813,14.5781062 86.0185563,14.4218562 85.1904313,14.2656063 C83.6123063,13.9687312 82.8466813,13.4531062 82.8466813,11.8124812 C82.8466813,10.3124812 83.9404313,9.28123125 85.6748063,9.28123125 C87.1435563,9.28123125 88.5185563,9.92185625 88.5185563,11.7656062 L88.5185563,11.8749812 C88.5185563,12.0937312 88.4091813,12.2031062 88.1904313,12.2031062 L86.6904313,12.2031062 C86.4404313,12.2031062 86.3466813,12.1093562 86.3466813,11.9062312 C86.3466813,11.6406062 86.1435563,11.4687312 85.7841813,11.4687312 C85.4404313,11.4687312 85.2529313,11.6093562 85.2529313,11.8593562 C85.2529313,12.1406062 85.5185563,12.2968562 86.5341813,12.4687312 C87.9873063,12.7031062 88.6591813,13.4531062 88.6591813,14.7968562 C88.6591813,16.3749813 87.6123063,17.4062313 85.7216813,17.4062313 C84.0185563,17.4062313 82.8154313,16.5781063 82.8154313,14.9531062 L82.8154313,14.8437312 C82.8154313,14.6249812 82.9091813,14.5156062 83.1435563,14.5156062 L84.7373063,14.5156062 C84.9873063,14.5156062 85.0810563,14.6093562 85.0966813,14.8124812 C85.1123063,15.0624812 85.2841813,15.2187312 85.6904313,15.2187312 Z M50.0968625,29.8749812 L52.0031125,29.8749812 C52.2531125,29.8749812 52.3468625,29.9843562 52.3468625,30.2343562 C52.3468625,30.7812312 52.6124875,30.9843562 52.9874875,30.9843562 C53.3624875,30.9843562 53.6437375,30.7343562 53.6437375,30.3593562 C53.6437375,29.8906062 53.3781125,29.7031062 52.9874875,29.6562312 C50.8468625,29.4062312 49.6906125,28.4999812 49.6906125,26.2031062 C49.6906125,23.8749812 50.9718625,22.6562312 52.9718625,22.6562312 C54.9718625,22.6562312 56.2843625,23.9531062 56.2843625,26.1562312 C56.2843625,26.5781062 56.1281125,26.6562312 55.8937375,26.6562312 L53.9874875,26.6562312 C53.7374875,26.6562312 53.6437375,26.5468562 53.6437375,26.2968562 C53.6437375,25.8281062 53.3624875,25.5937312 52.9874875,25.5937312 C52.6124875,25.5937312 52.3312375,25.8437312 52.3312375,26.2187312 C52.3312375,26.6874812 52.6124875,26.8749812 53.2374875,26.9374812 C55.1437375,27.1249812 56.4093625,28.2187312 56.4093625,30.3593562 C56.4093625,32.6874812 55.0031125,33.9062312 53.0031125,33.9062312 C50.8468625,33.9062312 49.6906125,32.6874812 49.6906125,30.3906062 C49.6906125,29.9374812 49.8624875,29.8749812 50.0968625,29.8749812 Z M59.487425,29.8437312 C59.487425,30.8749812 59.6593,31.2499812 60.0968,31.2499812 C60.5343,31.2499812 60.706175,30.8749812 60.706175,29.8437312 C60.706175,28.8124812 60.5343,28.4374812 60.0968,28.4374812 C59.6593,28.4374812 59.487425,28.8124812 59.487425,29.8437312 Z M56.8468,29.8437312 C56.8468,26.9218562 58.0343,25.7812312 60.0968,25.7812312 C62.1593,25.7812312 63.3468,26.9218562 63.3468,29.8437312 C63.3468,32.7656062 62.1593,33.9062312 60.0968,33.9062312 C58.0343,33.9062312 56.8468,32.7656062 56.8468,29.8437312 Z M66.6748063,33.406225 C66.6748063,33.656225 66.5810563,33.749975 66.3310563,33.749975 L64.4873063,33.749975 C64.2373063,33.749975 64.1435563,33.656225 64.1435563,33.406225 L64.1435563,23.156225 C64.1435563,22.906225 64.2373063,22.812475 64.4873063,22.812475 L66.3310563,22.812475 C66.5810563,22.812475 66.6748063,22.906225 66.6748063,23.156225 L66.6748063,33.406225 Z M70.7216813,31.9374812 C71.0185563,31.9374812 71.1904313,31.7499812 71.1904313,31.2499812 C71.1904313,30.7499812 71.0185563,30.5624812 70.7216813,30.5624812 C70.4248063,30.5624812 70.2529313,30.7499812 70.2529313,31.2499812 C70.2529313,31.7499812 70.4248063,31.9374812 70.7216813,31.9374812 Z M68.5498063,28.3281062 C68.4091813,28.3281062 68.3466813,28.2343562 68.2998063,28.0624812 L67.9091813,26.6249812 C67.8935563,26.5624812 67.8779313,26.4999812 67.8779313,26.4531062 C67.8779313,26.3124812 67.9716813,26.2499812 68.1435563,26.1874812 C68.7998063,25.9374812 69.5341813,25.7812312 70.4560563,25.7812312 C72.3310563,25.7812312 73.6435563,26.5937312 73.6435563,29.4218562 L73.6435563,33.4062312 C73.6435563,33.6562312 73.5498063,33.7499812 73.2998063,33.7499812 L71.7841813,33.7499812 C71.5498063,33.7499812 71.4091813,33.6718562 71.2998063,33.4999812 C71.2216813,33.3749812 71.1748063,33.3124812 71.0810563,33.3124812 C71.0029313,33.3124812 70.9248063,33.3593562 70.8466813,33.4218562 C70.5498063,33.6562312 70.1123063,33.9062312 69.4873063,33.9062312 C68.2373063,33.9062312 67.5498063,32.9374812 67.5498063,31.2499812 C67.5498063,29.3906062 68.2373063,28.5937312 69.5810563,28.5937312 C70.1279313,28.5937312 70.4873063,28.7343562 70.7216813,28.8906062 C70.8466813,28.9843562 70.9091813,28.9999812 70.9560563,28.9999812 C71.0341813,28.9999812 71.0810563,28.9374812 71.0810563,28.8124812 C71.0810563,28.2812312 70.4560563,28.0468562 69.8935563,28.0468562 C69.4873063,28.0468562 69.1748063,28.1406062 68.7685563,28.2812312 C68.6904313,28.3124812 68.5966813,28.3281062 68.5498063,28.3281062 Z M77.8466188,28.7343562 C77.3778688,28.7343562 77.2059938,28.9687312 77.2059938,29.4374812 L77.2059938,33.3906062 C77.2059938,33.6406062 77.1122438,33.7499812 76.8622438,33.7499812 L75.0184938,33.7499812 C74.7684938,33.7499812 74.6747438,33.6406062 74.6747438,33.3906062 L74.6747438,26.2968562 C74.6747438,26.0468562 74.7684938,25.9374812 75.0184938,25.9374812 L76.3778688,25.9374812 C76.7997438,25.9374812 76.8934938,25.9843562 77.0341188,26.2187312 C77.0966188,26.3281062 77.1591188,26.3749812 77.2372438,26.3749812 C77.2997438,26.3749812 77.3622438,26.3437312 77.4403688,26.2812312 C77.8466188,25.9687312 78.2059938,25.7812312 78.7684938,25.7812312 C79.0497438,25.7812312 79.2216188,25.9062312 79.2216188,26.1562312 L79.2216188,28.3749812 C79.2216188,28.6249812 79.1278688,28.7343562 78.8778688,28.7343562 L77.8466188,28.7343562 Z M85.1275,29.6718562 C84.8775,29.6718562 84.78375,29.7656062 84.78375,30.0156062 L84.78375,33.3906062 C84.78375,33.6406062 84.69,33.7499812 84.44,33.7499812 L82.393125,33.7499812 C82.143125,33.7499812 82.049375,33.6406062 82.049375,33.3906062 L82.049375,23.1718562 C82.049375,22.9218562 82.143125,22.8124812 82.393125,22.8124812 L86.28375,22.8124812 C86.53375,22.8124812 86.6275,22.9218562 86.6275,23.1718562 L86.6275,25.5781062 C86.6275,25.8281062 86.53375,25.9374812 86.28375,25.9374812 L85.1275,25.9374812 C84.8775,25.9374812 84.78375,26.0312312 84.78375,26.2812312 L84.78375,26.5468562 C84.78375,26.7968562 84.8775,26.8906062 85.1275,26.8906062 L86.049375,26.8906062 C86.299375,26.8906062 86.393125,26.9999812 86.393125,27.2499812 L86.393125,29.3124812 C86.393125,29.5624812 86.299375,29.6718562 86.049375,29.6718562 L85.1275,29.6718562 Z M89.6741938,29.8437312 C89.6741938,30.8749812 89.8460688,31.2499812 90.2835688,31.2499812 C90.7210688,31.2499812 90.8929438,30.8749812 90.8929438,29.8437312 C90.8929438,28.8124812 90.7210688,28.4374812 90.2835688,28.4374812 C89.8460688,28.4374812 89.6741938,28.8124812 89.6741938,29.8437312 Z M87.0335688,29.8437312 C87.0335688,26.9218562 88.2210688,25.7812312 90.2835688,25.7812312 C92.3460688,25.7812312 93.5335688,26.9218562 93.5335688,29.8437312 C93.5335688,32.7656062 92.3460688,33.9062312 90.2835688,33.9062312 C88.2210688,33.9062312 87.0335688,32.7656062 87.0335688,29.8437312 Z M97.5022,28.7343562 C97.03345,28.7343562 96.861575,28.9687312 96.861575,29.4374812 L96.861575,33.3906062 C96.861575,33.6406062 96.767825,33.7499812 96.517825,33.7499812 L94.674075,33.7499812 C94.424075,33.7499812 94.330325,33.6406062 94.330325,33.3906062 L94.330325,26.2968562 C94.330325,26.0468562 94.424075,25.9374812 94.674075,25.9374812 L96.03345,25.9374812 C96.455325,25.9374812 96.549075,25.9843562 96.6897,26.2187312 C96.7522,26.3281062 96.8147,26.3749812 96.892825,26.3749812 C96.955325,26.3749812 97.017825,26.3437312 97.09595,26.2812312 C97.5022,25.9687312 97.861575,25.7812312 98.424075,25.7812312 C98.705325,25.7812312 98.8772,25.9062312 98.8772,26.1562312 L98.8772,28.3749812 C98.8772,28.6249812 98.78345,28.7343562 98.53345,28.7343562 L97.5022,28.7343562 Z M104.548706,29.1718562 C104.517456,29.2968562 104.501831,29.4062312 104.501831,29.4687312 C104.501831,29.5937312 104.611206,29.6406062 104.783081,29.6406062 L105.361206,29.6406062 C105.533081,29.6406062 105.626831,29.5781062 105.626831,29.4687312 C105.626831,29.4062312 105.611206,29.2968562 105.579956,29.1718562 L105.298706,27.9374812 C105.251831,27.7343562 105.189331,27.6093562 105.064331,27.6093562 C104.939331,27.6093562 104.892456,27.7343562 104.845581,27.9374812 L104.548706,29.1718562 Z M103.923706,33.3281062 C103.829956,33.7031062 103.704956,33.7499812 103.283081,33.7499812 L101.361206,33.7499812 C101.158081,33.7499812 101.079956,33.6562312 101.079956,33.4999812 C101.079956,33.4374812 101.095581,33.3906062 101.111206,33.3124812 L103.689331,23.1718562 C103.767456,22.8906062 103.892456,22.8124812 104.142456,22.8124812 L106.001831,22.8124812 C106.251831,22.8124812 106.376831,22.8906062 106.454956,23.1718562 L109.033081,33.3124812 C109.048706,33.3906062 109.064331,33.4374812 109.064331,33.4999812 C109.064331,33.6562312 108.986206,33.7499812 108.783081,33.7499812 L106.845581,33.7499812 C106.423706,33.7499812 106.298706,33.7031062 106.204956,33.3281062 L105.970581,32.3749812 C105.892456,32.0937312 105.783081,32.0312312 105.533081,32.0312312 L104.595581,32.0312312 C104.345581,32.0312312 104.220581,32.0937312 104.158081,32.3749812 L103.923706,33.3281062 Z M112.220456,33.406225 C112.220456,33.656225 112.126706,33.749975 111.876706,33.749975 L110.032956,33.749975 C109.782956,33.749975 109.689206,33.656225 109.689206,33.406225 L109.689206,23.156225 C109.689206,22.906225 109.782956,22.812475 110.032956,22.812475 L111.876706,22.812475 C112.126706,22.812475 112.220456,22.906225 112.220456,23.156225 L112.220456,33.406225 Z M115.923581,33.406225 C115.923581,33.656225 115.829831,33.749975 115.579831,33.749975 L113.736081,33.749975 C113.486081,33.749975 113.392331,33.656225 113.392331,33.406225 L113.392331,23.156225 C113.392331,22.906225 113.486081,22.812475 113.736081,22.812475 L115.579831,22.812475 C115.829831,22.812475 115.923581,22.906225 115.923581,23.156225 L115.923581,33.406225 Z" filter="url(#wordmark-mobile-a)" transform="translate(-34 8)"/>
</svg>
